ISO-10303-21;
HEADER;
/* Generated by software containing ST-Developer
 * from STEP Tools, Inc. (www.steptools.com) 
 */
/* OPTION: using custom renumber hook */

FILE_DESCRIPTION(
/* description */ ('STEP AP214',
'CAx-IF Rec.Pracs.---User Defined Attributes---1.5---2016-08-15'),
/* implementation_level */ '2;1');

FILE_NAME(
/* name */ 'CASE - Screen',
/* time_stamp */ '2026-06-13T05:17:18Z',
/* author */ (''),
/* organization */ (''),
/* preprocessor_version */ 'ST-DEVELOPER v20',
/* originating_system */ 'ONSHAPE BY PTC INC, 1.216',
/* authorisation */ '  ');

FILE_SCHEMA (('AUTOMOTIVE_DESIGN {1 0 10303 214 3 1 1}'));
ENDSEC;

DATA;
#10=PROPERTY_DEFINITION_REPRESENTATION(#14,#12);
#11=PROPERTY_DEFINITION_REPRESENTATION(#15,#13);
#12=REPRESENTATION('',(#16),#920);
#13=REPRESENTATION('',(#17),#920);
#14=PROPERTY_DEFINITION('pmi validation property','',#925);
#15=PROPERTY_DEFINITION('pmi validation property','',#925);
#16=VALUE_REPRESENTATION_ITEM('number of annotations',COUNT_MEASURE(0.));
#17=VALUE_REPRESENTATION_ITEM('number of views',COUNT_MEASURE(0.));
#18=SHAPE_REPRESENTATION_RELATIONSHIP('','',#578,#19);
#19=ADVANCED_BREP_SHAPE_REPRESENTATION('',(#576),#920);
#20=CONICAL_SURFACE('',#619,0.00336,0.785398163397448);
#21=CONICAL_SURFACE('',#620,0.00336,0.785398163397448);
#22=CONICAL_SURFACE('',#621,0.00336,0.785398163397448);
#23=CONICAL_SURFACE('',#622,0.00336,0.785398163397448);
#24=LINE('',#790,#81);
#25=LINE('',#793,#82);
#26=LINE('',#795,#83);
#27=LINE('',#797,#84);
#28=LINE('',#799,#85);
#29=LINE('',#801,#86);
#30=LINE('',#803,#87);
#31=LINE('',#805,#88);
#32=LINE('',#807,#89);
#33=LINE('',#809,#90);
#34=LINE('',#811,#91);
#35=LINE('',#813,#92);
#36=LINE('',#816,#93);
#37=LINE('',#817,#94);
#38=LINE('',#819,#95);
#39=LINE('',#820,#96);
#40=LINE('',#822,#97);
#41=LINE('',#825,#98);
#42=LINE('',#827,#99);
#43=LINE('',#829,#100);
#44=LINE('',#831,#101);
#45=LINE('',#833,#102);
#46=LINE('',#835,#103);
#47=LINE('',#837,#104);
#48=LINE('',#839,#105);
#49=LINE('',#841,#106);
#50=LINE('',#843,#107);
#51=LINE('',#844,#108);
#52=LINE('',#846,#109);
#53=LINE('',#849,#110);
#54=LINE('',#850,#111);
#55=LINE('',#852,#112);
#56=LINE('',#853,#113);
#57=LINE('',#864,#114);
#58=LINE('',#867,#115);
#59=LINE('',#869,#116);
#60=LINE('',#871,#117);
#61=LINE('',#872,#118);
#62=LINE('',#875,#119);
#63=LINE('',#877,#120);
#64=LINE('',#879,#121);
#65=LINE('',#882,#122);
#66=LINE('',#885,#123);
#67=LINE('',#887,#124);
#68=LINE('',#889,#125);
#69=LINE('',#891,#126);
#70=LINE('',#892,#127);
#71=LINE('',#894,#128);
#72=LINE('',#896,#129);
#73=LINE('',#899,#130);
#74=LINE('',#902,#131);
#75=LINE('',#904,#132);
#76=LINE('',#906,#133);
#77=LINE('',#908,#134);
#78=LINE('',#909,#135);
#79=LINE('',#911,#136);
#80=LINE('',#913,#137);
#81=VECTOR('',#651,1.);
#82=VECTOR('',#652,1.);
#83=VECTOR('',#653,1.);
#84=VECTOR('',#654,1.);
#85=VECTOR('',#655,1.);
#86=VECTOR('',#656,1.);
#87=VECTOR('',#659,1.);
#88=VECTOR('',#660,1.);
#89=VECTOR('',#661,1.);
#90=VECTOR('',#662,1.);
#91=VECTOR('',#663,1.);
#92=VECTOR('',#666,1.);
#93=VECTOR('',#667,1.);
#94=VECTOR('',#668,1.);
#95=VECTOR('',#671,1.);
#96=VECTOR('',#672,1.);
#97=VECTOR('',#675,1.);
#98=VECTOR('',#676,1.);
#99=VECTOR('',#677,1.);
#100=VECTOR('',#678,1.);
#101=VECTOR('',#681,1.);
#102=VECTOR('',#682,1.);
#103=VECTOR('',#683,1.);
#104=VECTOR('',#686,1.);
#105=VECTOR('',#687,1.);
#106=VECTOR('',#688,1.);
#107=VECTOR('',#691,1.);
#108=VECTOR('',#692,1.);
#109=VECTOR('',#695,1.);
#110=VECTOR('',#696,1.);
#111=VECTOR('',#697,1.);
#112=VECTOR('',#700,1.);
#113=VECTOR('',#701,1.);
#114=VECTOR('',#714,1.);
#115=VECTOR('',#715,1.);
#116=VECTOR('',#716,1.);
#117=VECTOR('',#717,1.);
#118=VECTOR('',#718,1.);
#119=VECTOR('',#719,1.);
#120=VECTOR('',#720,1.);
#121=VECTOR('',#721,1.);
#122=VECTOR('',#726,1.);
#123=VECTOR('',#727,1.);
#124=VECTOR('',#728,1.);
#125=VECTOR('',#729,1.);
#126=VECTOR('',#732,1.);
#127=VECTOR('',#733,1.);
#128=VECTOR('',#736,1.);
#129=VECTOR('',#739,1.);
#130=VECTOR('',#744,1.);
#131=VECTOR('',#745,1.);
#132=VECTOR('',#746,1.);
#133=VECTOR('',#747,1.);
#134=VECTOR('',#750,1.);
#135=VECTOR('',#751,1.);
#136=VECTOR('',#754,1.);
#137=VECTOR('',#757,1.);
#138=PLANE('',#592);
#139=PLANE('',#593);
#140=PLANE('',#594);
#141=PLANE('',#595);
#142=PLANE('',#596);
#143=PLANE('',#597);
#144=PLANE('',#598);
#145=PLANE('',#599);
#146=PLANE('',#600);
#147=PLANE('',#601);
#148=PLANE('',#602);
#149=PLANE('',#603);
#150=PLANE('',#608);
#151=PLANE('',#609);
#152=PLANE('',#610);
#153=PLANE('',#611);
#154=PLANE('',#612);
#155=PLANE('',#613);
#156=PLANE('',#614);
#157=PLANE('',#615);
#158=PLANE('',#616);
#159=PLANE('',#617);
#160=PLANE('',#618);
#161=ORIENTED_EDGE('',*,*,#299,.F.);
#162=ORIENTED_EDGE('',*,*,#300,.T.);
#163=ORIENTED_EDGE('',*,*,#301,.F.);
#164=ORIENTED_EDGE('',*,*,#302,.T.);
#165=ORIENTED_EDGE('',*,*,#303,.F.);
#166=ORIENTED_EDGE('',*,*,#304,.T.);
#167=ORIENTED_EDGE('',*,*,#305,.F.);
#168=ORIENTED_EDGE('',*,*,#306,.T.);
#169=ORIENTED_EDGE('',*,*,#307,.F.);
#170=ORIENTED_EDGE('',*,*,#308,.F.);
#171=ORIENTED_EDGE('',*,*,#309,.T.);
#172=ORIENTED_EDGE('',*,*,#310,.T.);
#173=ORIENTED_EDGE('',*,*,#311,.T.);
#174=ORIENTED_EDGE('',*,*,#312,.T.);
#175=ORIENTED_EDGE('',*,*,#313,.F.);
#176=ORIENTED_EDGE('',*,*,#314,.F.);
#177=ORIENTED_EDGE('',*,*,#315,.T.);
#178=ORIENTED_EDGE('',*,*,#316,.F.);
#179=ORIENTED_EDGE('',*,*,#317,.T.);
#180=ORIENTED_EDGE('',*,*,#308,.T.);
#181=ORIENTED_EDGE('',*,*,#318,.T.);
#182=ORIENTED_EDGE('',*,*,#319,.T.);
#183=ORIENTED_EDGE('',*,*,#312,.F.);
#184=ORIENTED_EDGE('',*,*,#320,.F.);
#185=ORIENTED_EDGE('',*,*,#314,.T.);
#186=ORIENTED_EDGE('',*,*,#321,.T.);
#187=ORIENTED_EDGE('',*,*,#318,.F.);
#188=ORIENTED_EDGE('',*,*,#322,.F.);
#189=ORIENTED_EDGE('',*,*,#323,.F.);
#190=ORIENTED_EDGE('',*,*,#324,.F.);
#191=ORIENTED_EDGE('',*,*,#325,.T.);
#192=ORIENTED_EDGE('',*,*,#326,.T.);
#193=ORIENTED_EDGE('',*,*,#327,.F.);
#194=ORIENTED_EDGE('',*,*,#328,.F.);
#195=ORIENTED_EDGE('',*,*,#329,.T.);
#196=ORIENTED_EDGE('',*,*,#324,.T.);
#197=ORIENTED_EDGE('',*,*,#330,.F.);
#198=ORIENTED_EDGE('',*,*,#326,.F.);
#199=ORIENTED_EDGE('',*,*,#331,.T.);
#200=ORIENTED_EDGE('',*,*,#332,.T.);
#201=ORIENTED_EDGE('',*,*,#333,.F.);
#202=ORIENTED_EDGE('',*,*,#332,.F.);
#203=ORIENTED_EDGE('',*,*,#334,.T.);
#204=ORIENTED_EDGE('',*,*,#328,.T.);
#205=ORIENTED_EDGE('',*,*,#335,.T.);
#206=ORIENTED_EDGE('',*,*,#336,.T.);
#207=ORIENTED_EDGE('',*,*,#310,.F.);
#208=ORIENTED_EDGE('',*,*,#337,.F.);
#209=ORIENTED_EDGE('',*,*,#316,.T.);
#210=ORIENTED_EDGE('',*,*,#338,.T.);
#211=ORIENTED_EDGE('',*,*,#335,.F.);
#212=ORIENTED_EDGE('',*,*,#339,.F.);
#213=ORIENTED_EDGE('',*,*,#304,.F.);
#214=ORIENTED_EDGE('',*,*,#300,.F.);
#215=ORIENTED_EDGE('',*,*,#317,.F.);
#216=ORIENTED_EDGE('',*,*,#339,.T.);
#217=ORIENTED_EDGE('',*,*,#337,.T.);
#218=ORIENTED_EDGE('',*,*,#309,.F.);
#219=ORIENTED_EDGE('',*,*,#334,.F.);
#220=ORIENTED_EDGE('',*,*,#331,.F.);
#221=ORIENTED_EDGE('',*,*,#325,.F.);
#222=ORIENTED_EDGE('',*,*,#329,.F.);
#223=ORIENTED_EDGE('',*,*,#302,.F.);
#224=ORIENTED_EDGE('',*,*,#306,.F.);
#225=ORIENTED_EDGE('',*,*,#340,.T.);
#226=ORIENTED_EDGE('',*,*,#341,.T.);
#227=ORIENTED_EDGE('',*,*,#342,.T.);
#228=ORIENTED_EDGE('',*,*,#343,.T.);
#229=ORIENTED_EDGE('',*,*,#344,.F.);
#230=ORIENTED_EDGE('',*,*,#345,.F.);
#231=ORIENTED_EDGE('',*,*,#346,.F.);
#232=ORIENTED_EDGE('',*,*,#347,.F.);
#233=ORIENTED_EDGE('',*,*,#348,.T.);
#234=ORIENTED_EDGE('',*,*,#349,.T.);
#235=ORIENTED_EDGE('',*,*,#350,.F.);
#236=ORIENTED_EDGE('',*,*,#351,.F.);
#237=ORIENTED_EDGE('',*,*,#338,.F.);
#238=ORIENTED_EDGE('',*,*,#315,.F.);
#239=ORIENTED_EDGE('',*,*,#322,.T.);
#240=ORIENTED_EDGE('',*,*,#320,.T.);
#241=ORIENTED_EDGE('',*,*,#311,.F.);
#242=ORIENTED_EDGE('',*,*,#336,.F.);
#243=ORIENTED_EDGE('',*,*,#323,.T.);
#244=ORIENTED_EDGE('',*,*,#330,.T.);
#245=ORIENTED_EDGE('',*,*,#333,.T.);
#246=ORIENTED_EDGE('',*,*,#327,.T.);
#247=ORIENTED_EDGE('',*,*,#352,.F.);
#248=ORIENTED_EDGE('',*,*,#353,.F.);
#249=ORIENTED_EDGE('',*,*,#354,.F.);
#250=ORIENTED_EDGE('',*,*,#355,.F.);
#251=ORIENTED_EDGE('',*,*,#356,.F.);
#252=ORIENTED_EDGE('',*,*,#352,.T.);
#253=ORIENTED_EDGE('',*,*,#357,.T.);
#254=ORIENTED_EDGE('',*,*,#347,.T.);
#255=ORIENTED_EDGE('',*,*,#358,.F.);
#256=ORIENTED_EDGE('',*,*,#353,.T.);
#257=ORIENTED_EDGE('',*,*,#356,.T.);
#258=ORIENTED_EDGE('',*,*,#346,.T.);
#259=ORIENTED_EDGE('',*,*,#359,.F.);
#260=ORIENTED_EDGE('',*,*,#354,.T.);
#261=ORIENTED_EDGE('',*,*,#358,.T.);
#262=ORIENTED_EDGE('',*,*,#345,.T.);
#263=ORIENTED_EDGE('',*,*,#357,.F.);
#264=ORIENTED_EDGE('',*,*,#355,.T.);
#265=ORIENTED_EDGE('',*,*,#359,.T.);
#266=ORIENTED_EDGE('',*,*,#344,.T.);
#267=ORIENTED_EDGE('',*,*,#360,.T.);
#268=ORIENTED_EDGE('',*,*,#361,.F.);
#269=ORIENTED_EDGE('',*,*,#362,.F.);
#270=ORIENTED_EDGE('',*,*,#363,.T.);
#271=ORIENTED_EDGE('',*,*,#321,.F.);
#272=ORIENTED_EDGE('',*,*,#313,.T.);
#273=ORIENTED_EDGE('',*,*,#307,.T.);
#274=ORIENTED_EDGE('',*,*,#319,.F.);
#275=ORIENTED_EDGE('',*,*,#364,.F.);
#276=ORIENTED_EDGE('',*,*,#361,.T.);
#277=ORIENTED_EDGE('',*,*,#365,.T.);
#278=ORIENTED_EDGE('',*,*,#351,.T.);
#279=ORIENTED_EDGE('',*,*,#366,.F.);
#280=ORIENTED_EDGE('',*,*,#362,.T.);
#281=ORIENTED_EDGE('',*,*,#364,.T.);
#282=ORIENTED_EDGE('',*,*,#350,.T.);
#283=ORIENTED_EDGE('',*,*,#360,.F.);
#284=ORIENTED_EDGE('',*,*,#367,.T.);
#285=ORIENTED_EDGE('',*,*,#348,.F.);
#286=ORIENTED_EDGE('',*,*,#365,.F.);
#287=ORIENTED_EDGE('',*,*,#363,.F.);
#288=ORIENTED_EDGE('',*,*,#366,.T.);
#289=ORIENTED_EDGE('',*,*,#349,.F.);
#290=ORIENTED_EDGE('',*,*,#367,.F.);
#291=ORIENTED_EDGE('',*,*,#305,.T.);
#292=ORIENTED_EDGE('',*,*,#340,.F.);
#293=ORIENTED_EDGE('',*,*,#303,.T.);
#294=ORIENTED_EDGE('',*,*,#343,.F.);
#295=ORIENTED_EDGE('',*,*,#301,.T.);
#296=ORIENTED_EDGE('',*,*,#342,.F.);
#297=ORIENTED_EDGE('',*,*,#299,.T.);
#298=ORIENTED_EDGE('',*,*,#341,.F.);
#299=EDGE_CURVE('',#368,#368,#418,.T.);
#300=EDGE_CURVE('',#369,#369,#419,.F.);
#301=EDGE_CURVE('',#370,#370,#420,.T.);
#302=EDGE_CURVE('',#371,#371,#421,.F.);
#303=EDGE_CURVE('',#372,#372,#422,.T.);
#304=EDGE_CURVE('',#373,#373,#423,.F.);
#305=EDGE_CURVE('',#374,#374,#424,.T.);
#306=EDGE_CURVE('',#375,#375,#425,.F.);
#307=EDGE_CURVE('',#376,#377,#24,.T.);
#308=EDGE_CURVE('',#378,#376,#25,.T.);
#309=EDGE_CURVE('',#378,#379,#26,.T.);
#310=EDGE_CURVE('',#379,#380,#27,.T.);
#311=EDGE_CURVE('',#380,#381,#28,.T.);
#312=EDGE_CURVE('',#381,#377,#29,.T.);
#313=EDGE_CURVE('',#382,#376,#30,.T.);
#314=EDGE_CURVE('',#383,#382,#31,.T.);
#315=EDGE_CURVE('',#383,#384,#32,.T.);
#316=EDGE_CURVE('',#385,#384,#33,.T.);
#317=EDGE_CURVE('',#385,#378,#34,.T.);
#318=EDGE_CURVE('',#386,#387,#35,.T.);
#319=EDGE_CURVE('',#387,#377,#36,.T.);
#320=EDGE_CURVE('',#386,#381,#37,.T.);
#321=EDGE_CURVE('',#382,#387,#38,.T.);
#322=EDGE_CURVE('',#383,#386,#39,.T.);
#323=EDGE_CURVE('',#388,#389,#40,.T.);
#324=EDGE_CURVE('',#390,#388,#41,.T.);
#325=EDGE_CURVE('',#390,#391,#42,.T.);
#326=EDGE_CURVE('',#391,#389,#43,.T.);
#327=EDGE_CURVE('',#392,#388,#44,.T.);
#328=EDGE_CURVE('',#393,#392,#45,.T.);
#329=EDGE_CURVE('',#393,#390,#46,.T.);
#330=EDGE_CURVE('',#389,#394,#47,.T.);
#331=EDGE_CURVE('',#391,#395,#48,.T.);
#332=EDGE_CURVE('',#395,#394,#49,.T.);
#333=EDGE_CURVE('',#394,#392,#50,.T.);
#334=EDGE_CURVE('',#395,#393,#51,.T.);
#335=EDGE_CURVE('',#396,#397,#52,.T.);
#336=EDGE_CURVE('',#397,#380,#53,.T.);
#337=EDGE_CURVE('',#396,#379,#54,.T.);
#338=EDGE_CURVE('',#384,#397,#55,.T.);
#339=EDGE_CURVE('',#385,#396,#56,.T.);
#340=EDGE_CURVE('',#398,#398,#426,.T.);
#341=EDGE_CURVE('',#399,#399,#427,.T.);
#342=EDGE_CURVE('',#400,#400,#428,.T.);
#343=EDGE_CURVE('',#401,#401,#429,.T.);
#344=EDGE_CURVE('',#402,#403,#57,.T.);
#345=EDGE_CURVE('',#404,#402,#58,.T.);
#346=EDGE_CURVE('',#405,#404,#59,.T.);
#347=EDGE_CURVE('',#403,#405,#60,.T.);
#348=EDGE_CURVE('',#406,#407,#61,.T.);
#349=EDGE_CURVE('',#407,#408,#62,.T.);
#350=EDGE_CURVE('',#409,#408,#63,.T.);
#351=EDGE_CURVE('',#406,#409,#64,.T.);
#352=EDGE_CURVE('',#410,#411,#65,.T.);
#353=EDGE_CURVE('',#412,#410,#66,.T.);
#354=EDGE_CURVE('',#413,#412,#67,.T.);
#355=EDGE_CURVE('',#411,#413,#68,.T.);
#356=EDGE_CURVE('',#410,#405,#69,.T.);
#357=EDGE_CURVE('',#411,#403,#70,.T.);
#358=EDGE_CURVE('',#412,#404,#71,.T.);
#359=EDGE_CURVE('',#413,#402,#72,.T.);
#360=EDGE_CURVE('',#414,#415,#73,.T.);
#361=EDGE_CURVE('',#416,#415,#74,.T.);
#362=EDGE_CURVE('',#417,#416,#75,.T.);
#363=EDGE_CURVE('',#417,#414,#76,.T.);
#364=EDGE_CURVE('',#416,#409,#77,.T.);
#365=EDGE_CURVE('',#415,#406,#78,.T.);
#366=EDGE_CURVE('',#417,#408,#79,.T.);
#367=EDGE_CURVE('',#414,#407,#80,.T.);
#368=VERTEX_POINT('',#771);
#369=VERTEX_POINT('',#773);
#370=VERTEX_POINT('',#776);
#371=VERTEX_POINT('',#778);
#372=VERTEX_POINT('',#781);
#373=VERTEX_POINT('',#783);
#374=VERTEX_POINT('',#786);
#375=VERTEX_POINT('',#788);
#376=VERTEX_POINT('',#791);
#377=VERTEX_POINT('',#792);
#378=VERTEX_POINT('',#794);
#379=VERTEX_POINT('',#796);
#380=VERTEX_POINT('',#798);
#381=VERTEX_POINT('',#800);
#382=VERTEX_POINT('',#804);
#383=VERTEX_POINT('',#806);
#384=VERTEX_POINT('',#808);
#385=VERTEX_POINT('',#810);
#386=VERTEX_POINT('',#814);
#387=VERTEX_POINT('',#815);
#388=VERTEX_POINT('',#823);
#389=VERTEX_POINT('',#824);
#390=VERTEX_POINT('',#826);
#391=VERTEX_POINT('',#828);
#392=VERTEX_POINT('',#832);
#393=VERTEX_POINT('',#834);
#394=VERTEX_POINT('',#838);
#395=VERTEX_POINT('',#840);
#396=VERTEX_POINT('',#847);
#397=VERTEX_POINT('',#848);
#398=VERTEX_POINT('',#857);
#399=VERTEX_POINT('',#859);
#400=VERTEX_POINT('',#861);
#401=VERTEX_POINT('',#863);
#402=VERTEX_POINT('',#865);
#403=VERTEX_POINT('',#866);
#404=VERTEX_POINT('',#868);
#405=VERTEX_POINT('',#870);
#406=VERTEX_POINT('',#873);
#407=VERTEX_POINT('',#874);
#408=VERTEX_POINT('',#876);
#409=VERTEX_POINT('',#878);
#410=VERTEX_POINT('',#883);
#411=VERTEX_POINT('',#884);
#412=VERTEX_POINT('',#886);
#413=VERTEX_POINT('',#888);
#414=VERTEX_POINT('',#900);
#415=VERTEX_POINT('',#901);
#416=VERTEX_POINT('',#903);
#417=VERTEX_POINT('',#905);
#418=CIRCLE('',#581,0.0015);
#419=CIRCLE('',#582,0.0015);
#420=CIRCLE('',#584,0.0015);
#421=CIRCLE('',#585,0.0015);
#422=CIRCLE('',#587,0.0015);
#423=CIRCLE('',#588,0.0015);
#424=CIRCLE('',#590,0.0015);
#425=CIRCLE('',#591,0.0015);
#426=CIRCLE('',#604,0.00336);
#427=CIRCLE('',#605,0.00336);
#428=CIRCLE('',#606,0.00336);
#429=CIRCLE('',#607,0.00336);
#430=EDGE_LOOP('',(#161));
#431=EDGE_LOOP('',(#162));
#432=EDGE_LOOP('',(#163));
#433=EDGE_LOOP('',(#164));
#434=EDGE_LOOP('',(#165));
#435=EDGE_LOOP('',(#166));
#436=EDGE_LOOP('',(#167));
#437=EDGE_LOOP('',(#168));
#438=EDGE_LOOP('',(#169,#170,#171,#172,#173,#174));
#439=EDGE_LOOP('',(#175,#176,#177,#178,#179,#180));
#440=EDGE_LOOP('',(#181,#182,#183,#184));
#441=EDGE_LOOP('',(#185,#186,#187,#188));
#442=EDGE_LOOP('',(#189,#190,#191,#192));
#443=EDGE_LOOP('',(#193,#194,#195,#196));
#444=EDGE_LOOP('',(#197,#198,#199,#200));
#445=EDGE_LOOP('',(#201,#202,#203,#204));
#446=EDGE_LOOP('',(#205,#206,#207,#208));
#447=EDGE_LOOP('',(#209,#210,#211,#212));
#448=EDGE_LOOP('',(#213));
#449=EDGE_LOOP('',(#214));
#450=EDGE_LOOP('',(#215,#216,#217,#218));
#451=EDGE_LOOP('',(#219,#220,#221,#222));
#452=EDGE_LOOP('',(#223));
#453=EDGE_LOOP('',(#224));
#454=EDGE_LOOP('',(#225));
#455=EDGE_LOOP('',(#226));
#456=EDGE_LOOP('',(#227));
#457=EDGE_LOOP('',(#228));
#458=EDGE_LOOP('',(#229,#230,#231,#232));
#459=EDGE_LOOP('',(#233,#234,#235,#236));
#460=EDGE_LOOP('',(#237,#238,#239,#240,#241,#242));
#461=EDGE_LOOP('',(#243,#244,#245,#246));
#462=EDGE_LOOP('',(#247,#248,#249,#250));
#463=EDGE_LOOP('',(#251,#252,#253,#254));
#464=EDGE_LOOP('',(#255,#256,#257,#258));
#465=EDGE_LOOP('',(#259,#260,#261,#262));
#466=EDGE_LOOP('',(#263,#264,#265,#266));
#467=EDGE_LOOP('',(#267,#268,#269,#270));
#468=EDGE_LOOP('',(#271,#272,#273,#274));
#469=EDGE_LOOP('',(#275,#276,#277,#278));
#470=EDGE_LOOP('',(#279,#280,#281,#282));
#471=EDGE_LOOP('',(#283,#284,#285,#286));
#472=EDGE_LOOP('',(#287,#288,#289,#290));
#473=EDGE_LOOP('',(#291));
#474=EDGE_LOOP('',(#292));
#475=EDGE_LOOP('',(#293));
#476=EDGE_LOOP('',(#294));
#477=EDGE_LOOP('',(#295));
#478=EDGE_LOOP('',(#296));
#479=EDGE_LOOP('',(#297));
#480=EDGE_LOOP('',(#298));
#481=FACE_BOUND('',#430,.T.);
#482=FACE_BOUND('',#431,.T.);
#483=FACE_BOUND('',#432,.T.);
#484=FACE_BOUND('',#433,.T.);
#485=FACE_BOUND('',#434,.T.);
#486=FACE_BOUND('',#435,.T.);
#487=FACE_BOUND('',#436,.T.);
#488=FACE_BOUND('',#437,.T.);
#489=FACE_BOUND('',#438,.T.);
#490=FACE_BOUND('',#439,.T.);
#491=FACE_BOUND('',#440,.T.);
#492=FACE_BOUND('',#441,.T.);
#493=FACE_BOUND('',#442,.T.);
#494=FACE_BOUND('',#443,.T.);
#495=FACE_BOUND('',#444,.T.);
#496=FACE_BOUND('',#445,.T.);
#497=FACE_BOUND('',#446,.T.);
#498=FACE_BOUND('',#447,.T.);
#499=FACE_BOUND('',#448,.T.);
#500=FACE_BOUND('',#449,.T.);
#501=FACE_BOUND('',#450,.T.);
#502=FACE_BOUND('',#451,.T.);
#503=FACE_BOUND('',#452,.T.);
#504=FACE_BOUND('',#453,.T.);
#505=FACE_BOUND('',#454,.T.);
#506=FACE_BOUND('',#455,.T.);
#507=FACE_BOUND('',#456,.T.);
#508=FACE_BOUND('',#457,.T.);
#509=FACE_BOUND('',#458,.T.);
#510=FACE_BOUND('',#459,.T.);
#511=FACE_BOUND('',#460,.T.);
#512=FACE_BOUND('',#461,.T.);
#513=FACE_BOUND('',#462,.T.);
#514=FACE_BOUND('',#463,.T.);
#515=FACE_BOUND('',#464,.T.);
#516=FACE_BOUND('',#465,.T.);
#517=FACE_BOUND('',#466,.T.);
#518=FACE_BOUND('',#467,.T.);
#519=FACE_BOUND('',#468,.T.);
#520=FACE_BOUND('',#469,.T.);
#521=FACE_BOUND('',#470,.T.);
#522=FACE_BOUND('',#471,.T.);
#523=FACE_BOUND('',#472,.T.);
#524=FACE_BOUND('',#473,.T.);
#525=FACE_BOUND('',#474,.T.);
#526=FACE_BOUND('',#475,.T.);
#527=FACE_BOUND('',#476,.T.);
#528=FACE_BOUND('',#477,.T.);
#529=FACE_BOUND('',#478,.T.);
#530=FACE_BOUND('',#479,.T.);
#531=FACE_BOUND('',#480,.T.);
#532=CYLINDRICAL_SURFACE('',#580,0.0015);
#533=CYLINDRICAL_SURFACE('',#583,0.0015);
#534=CYLINDRICAL_SURFACE('',#586,0.0015);
#535=CYLINDRICAL_SURFACE('',#589,0.0015);
#536=ADVANCED_FACE('',(#481,#482),#532,.F.);
#537=ADVANCED_FACE('',(#483,#484),#533,.F.);
#538=ADVANCED_FACE('',(#485,#486),#534,.F.);
#539=ADVANCED_FACE('',(#487,#488),#535,.F.);
#540=ADVANCED_FACE('',(#489),#138,.F.);
#541=ADVANCED_FACE('',(#490),#139,.F.);
#542=ADVANCED_FACE('',(#491),#140,.T.);
#543=ADVANCED_FACE('',(#492),#141,.T.);
#544=ADVANCED_FACE('',(#493),#142,.F.);
#545=ADVANCED_FACE('',(#494),#143,.F.);
#546=ADVANCED_FACE('',(#495),#144,.F.);
#547=ADVANCED_FACE('',(#496),#145,.F.);
#548=ADVANCED_FACE('',(#497),#146,.T.);
#549=ADVANCED_FACE('',(#498),#147,.T.);
#550=ADVANCED_FACE('',(#499,#500,#501,#502,#503,#504),#148,.F.);
#551=ADVANCED_FACE('',(#505,#506,#507,#508,#509,#510),#149,.T.);
#552=ADVANCED_FACE('',(#511),#150,.F.);
#553=ADVANCED_FACE('',(#512,#513),#151,.F.);
#554=ADVANCED_FACE('',(#514),#152,.F.);
#555=ADVANCED_FACE('',(#515),#153,.F.);
#556=ADVANCED_FACE('',(#516),#154,.F.);
#557=ADVANCED_FACE('',(#517),#155,.F.);
#558=ADVANCED_FACE('',(#518,#519),#156,.F.);
#559=ADVANCED_FACE('',(#520),#157,.F.);
#560=ADVANCED_FACE('',(#521),#158,.F.);
#561=ADVANCED_FACE('',(#522),#159,.T.);
#562=ADVANCED_FACE('',(#523),#160,.T.);
#563=ADVANCED_FACE('',(#524,#525),#20,.F.);
#564=ADVANCED_FACE('',(#526,#527),#21,.F.);
#565=ADVANCED_FACE('',(#528,#529),#22,.F.);
#566=ADVANCED_FACE('',(#530,#531),#23,.F.);
#567=CLOSED_SHELL('',(#536,#537,#538,#539,#540,#541,#542,#543,#544,#545,
#546,#547,#548,#549,#550,#551,#552,#553,#554,#555,#556,#557,#558,#559,#560,
#561,#562,#563,#564,#565,#566));
#568=STYLED_ITEM('',(#569),#576);
#569=PRESENTATION_STYLE_ASSIGNMENT((#570));
#570=SURFACE_STYLE_USAGE(.BOTH.,#571);
#571=SURFACE_SIDE_STYLE('',(#572));
#572=SURFACE_STYLE_FILL_AREA(#573);
#573=FILL_AREA_STYLE('',(#574));
#574=FILL_AREA_STYLE_COLOUR('',#575);
#575=COLOUR_RGB('',0.129411764705882,0.113725490196078,0.113725490196078);
#576=MANIFOLD_SOLID_BREP('Screen',#567);
#577=SHAPE_DEFINITION_REPRESENTATION(#925,#578);
#578=SHAPE_REPRESENTATION('Screen',(#579),#920);
#579=AXIS2_PLACEMENT_3D('',#768,#623,#624);
#580=AXIS2_PLACEMENT_3D('',#769,#625,#626);
#581=AXIS2_PLACEMENT_3D('',#770,#627,#628);
#582=AXIS2_PLACEMENT_3D('',#772,#629,#630);
#583=AXIS2_PLACEMENT_3D('',#774,#631,#632);
#584=AXIS2_PLACEMENT_3D('',#775,#633,#634);
#585=AXIS2_PLACEMENT_3D('',#777,#635,#636);
#586=AXIS2_PLACEMENT_3D('',#779,#637,#638);
#587=AXIS2_PLACEMENT_3D('',#780,#639,#640);
#588=AXIS2_PLACEMENT_3D('',#782,#641,#642);
#589=AXIS2_PLACEMENT_3D('',#784,#643,#644);
#590=AXIS2_PLACEMENT_3D('',#785,#645,#646);
#591=AXIS2_PLACEMENT_3D('',#787,#647,#648);
#592=AXIS2_PLACEMENT_3D('',#789,#649,#650);
#593=AXIS2_PLACEMENT_3D('',#802,#657,#658);
#594=AXIS2_PLACEMENT_3D('',#812,#664,#665);
#595=AXIS2_PLACEMENT_3D('',#818,#669,#670);
#596=AXIS2_PLACEMENT_3D('',#821,#673,#674);
#597=AXIS2_PLACEMENT_3D('',#830,#679,#680);
#598=AXIS2_PLACEMENT_3D('',#836,#684,#685);
#599=AXIS2_PLACEMENT_3D('',#842,#689,#690);
#600=AXIS2_PLACEMENT_3D('',#845,#693,#694);
#601=AXIS2_PLACEMENT_3D('',#851,#698,#699);
#602=AXIS2_PLACEMENT_3D('',#854,#702,#703);
#603=AXIS2_PLACEMENT_3D('',#855,#704,#705);
#604=AXIS2_PLACEMENT_3D('',#856,#706,#707);
#605=AXIS2_PLACEMENT_3D('',#858,#708,#709);
#606=AXIS2_PLACEMENT_3D('',#860,#710,#711);
#607=AXIS2_PLACEMENT_3D('',#862,#712,#713);
#608=AXIS2_PLACEMENT_3D('',#880,#722,#723);
#609=AXIS2_PLACEMENT_3D('',#881,#724,#725);
#610=AXIS2_PLACEMENT_3D('',#890,#730,#731);
#611=AXIS2_PLACEMENT_3D('',#893,#734,#735);
#612=AXIS2_PLACEMENT_3D('',#895,#737,#738);
#613=AXIS2_PLACEMENT_3D('',#897,#740,#741);
#614=AXIS2_PLACEMENT_3D('',#898,#742,#743);
#615=AXIS2_PLACEMENT_3D('',#907,#748,#749);
#616=AXIS2_PLACEMENT_3D('',#910,#752,#753);
#617=AXIS2_PLACEMENT_3D('',#912,#755,#756);
#618=AXIS2_PLACEMENT_3D('',#914,#758,#759);
#619=AXIS2_PLACEMENT_3D('',#915,#760,#761);
#620=AXIS2_PLACEMENT_3D('',#916,#762,#763);
#621=AXIS2_PLACEMENT_3D('',#917,#764,#765);
#622=AXIS2_PLACEMENT_3D('',#918,#766,#767);
#623=DIRECTION('',(0.,0.,1.));
#624=DIRECTION('',(1.,0.,0.));
#625=DIRECTION('',(0.,0.,1.));
#626=DIRECTION('',(1.,0.,0.));
#627=DIRECTION('',(0.,0.,-1.));
#628=DIRECTION('',(-1.,0.,0.));
#629=DIRECTION('',(0.,0.,1.));
#630=DIRECTION('',(1.,0.,0.));
#631=DIRECTION('',(0.,0.,1.));
#632=DIRECTION('',(1.,0.,0.));
#633=DIRECTION('',(0.,0.,-1.));
#634=DIRECTION('',(-1.,0.,0.));
#635=DIRECTION('',(0.,0.,1.));
#636=DIRECTION('',(1.,0.,0.));
#637=DIRECTION('',(0.,0.,1.));
#638=DIRECTION('',(1.,0.,0.));
#639=DIRECTION('',(0.,0.,-1.));
#640=DIRECTION('',(-1.,0.,0.));
#641=DIRECTION('',(0.,0.,1.));
#642=DIRECTION('',(1.,0.,0.));
#643=DIRECTION('',(0.,0.,1.));
#644=DIRECTION('',(1.,0.,0.));
#645=DIRECTION('',(0.,0.,-1.));
#646=DIRECTION('',(-1.,0.,0.));
#647=DIRECTION('',(0.,0.,1.));
#648=DIRECTION('',(1.,0.,0.));
#649=DIRECTION('',(-1.,-2.97041691091919E-16,0.));
#650=DIRECTION('',(2.97041691091919E-16,-1.,0.));
#651=DIRECTION('',(-2.97041691091919E-16,1.,0.));
#652=DIRECTION('',(0.,0.,1.));
#653=DIRECTION('',(-2.97041691091919E-16,1.,0.));
#654=DIRECTION('',(0.,0.,1.));
#655=DIRECTION('',(-2.97041691091919E-16,1.,0.));
#656=DIRECTION('',(0.,0.,1.));
#657=DIRECTION('',(-1.38777878078145E-16,1.,0.));
#658=DIRECTION('',(-1.,-1.38777878078145E-16,0.));
#659=DIRECTION('',(1.,1.38777878078145E-16,0.));
#660=DIRECTION('',(0.,0.,1.));
#661=DIRECTION('',(1.,1.38777878078145E-16,0.));
#662=DIRECTION('',(0.,0.,1.));
#663=DIRECTION('',(1.,1.38777878078145E-16,0.));
#664=DIRECTION('',(0.,1.,0.));
#665=DIRECTION('',(0.,0.,1.));
#666=DIRECTION('',(0.,0.,1.));
#667=DIRECTION('',(1.,0.,0.));
#668=DIRECTION('',(1.,0.,0.));
#669=DIRECTION('',(-1.,-2.97041691091919E-16,0.));
#670=DIRECTION('',(2.97041691091919E-16,-1.,0.));
#671=DIRECTION('',(-2.97041691091919E-16,1.,0.));
#672=DIRECTION('',(-2.97041691091919E-16,1.,0.));
#673=DIRECTION('',(1.96569232405304E-16,-1.,0.));
#674=DIRECTION('',(1.,1.96569232405304E-16,0.));
#675=DIRECTION('',(-1.,-1.96569232405304E-16,0.));
#676=DIRECTION('',(0.,0.,1.));
#677=DIRECTION('',(-1.,-1.96569232405304E-16,0.));
#678=DIRECTION('',(0.,0.,1.));
#679=DIRECTION('',(1.,1.42775594730601E-16,0.));
#680=DIRECTION('',(-1.42775594730601E-16,1.,0.));
#681=DIRECTION('',(1.42775594730601E-16,-1.,0.));
#682=DIRECTION('',(0.,0.,1.));
#683=DIRECTION('',(1.42775594730601E-16,-1.,0.));
#684=DIRECTION('',(-1.,-2.85551189461203E-16,0.));
#685=DIRECTION('',(2.85551189461203E-16,-1.,0.));
#686=DIRECTION('',(-2.85551189461203E-16,1.,0.));
#687=DIRECTION('',(-2.85551189461203E-16,1.,0.));
#688=DIRECTION('',(0.,0.,1.));
#689=DIRECTION('',(0.,1.,0.));
#690=DIRECTION('',(0.,0.,1.));
#691=DIRECTION('',(1.,0.,0.));
#692=DIRECTION('',(1.,0.,0.));
#693=DIRECTION('',(0.,1.,0.));
#694=DIRECTION('',(0.,0.,1.));
#695=DIRECTION('',(0.,0.,1.));
#696=DIRECTION('',(1.,0.,0.));
#697=DIRECTION('',(1.,0.,0.));
#698=DIRECTION('',(-1.,-2.37633352873535E-16,0.));
#699=DIRECTION('',(2.37633352873535E-16,-1.,0.));
#700=DIRECTION('',(-2.37633352873535E-16,1.,0.));
#701=DIRECTION('',(-2.37633352873535E-16,1.,0.));
#702=DIRECTION('',(0.,0.,1.));
#703=DIRECTION('',(1.,0.,0.));
#704=DIRECTION('',(0.,0.,1.));
#705=DIRECTION('',(1.,0.,0.));
#706=DIRECTION('',(0.,0.,-1.));
#707=DIRECTION('',(-1.,0.,0.));
#708=DIRECTION('',(0.,0.,-1.));
#709=DIRECTION('',(-1.,0.,0.));
#710=DIRECTION('',(0.,0.,-1.));
#711=DIRECTION('',(-1.,0.,0.));
#712=DIRECTION('',(0.,0.,-1.));
#713=DIRECTION('',(-1.,0.,0.));
#714=DIRECTION('',(-3.40141858034668E-16,1.,0.));
#715=DIRECTION('',(1.,2.23115559611165E-16,0.));
#716=DIRECTION('',(3.40141858034668E-16,-1.,0.));
#717=DIRECTION('',(-1.,0.,0.));
#718=DIRECTION('',(-1.,0.,0.));
#719=DIRECTION('',(3.23240399250336E-16,-1.,0.));
#720=DIRECTION('',(-1.,-1.19636101791504E-16,0.));
#721=DIRECTION('',(3.23240399250336E-16,-1.,0.));
#722=DIRECTION('',(0.,0.,1.));
#723=DIRECTION('',(1.,0.,0.));
#724=DIRECTION('',(0.,0.,1.));
#725=DIRECTION('',(1.,0.,0.));
#726=DIRECTION('',(1.,0.,0.));
#727=DIRECTION('',(-3.40141858034668E-16,1.,0.));
#728=DIRECTION('',(-1.,-2.23115559611165E-16,0.));
#729=DIRECTION('',(3.40141858034668E-16,-1.,0.));
#730=DIRECTION('',(0.,1.,0.));
#731=DIRECTION('',(0.,0.,1.));
#732=DIRECTION('',(0.,0.,1.));
#733=DIRECTION('',(0.,0.,1.));
#734=DIRECTION('',(-1.,-3.40141858034668E-16,0.));
#735=DIRECTION('',(3.40141858034668E-16,-1.,0.));
#736=DIRECTION('',(0.,0.,1.));
#737=DIRECTION('',(2.23115559611165E-16,-1.,0.));
#738=DIRECTION('',(1.,2.23115559611165E-16,0.));
#739=DIRECTION('',(0.,0.,1.));
#740=DIRECTION('',(1.,3.40141858034668E-16,0.));
#741=DIRECTION('',(-3.40141858034668E-16,1.,0.));
#742=DIRECTION('',(0.,0.,1.));
#743=DIRECTION('',(1.,0.,0.));
#744=DIRECTION('',(1.,0.,0.));
#745=DIRECTION('',(-3.23240399250336E-16,1.,0.));
#746=DIRECTION('',(1.,1.19636101791504E-16,0.));
#747=DIRECTION('',(-3.23240399250336E-16,1.,0.));
#748=DIRECTION('',(-1.,-3.23240399250336E-16,0.));
#749=DIRECTION('',(3.23240399250336E-16,-1.,0.));
#750=DIRECTION('',(0.,0.,1.));
#751=DIRECTION('',(0.,0.,1.));
#752=DIRECTION('',(-1.19636101791504E-16,1.,0.));
#753=DIRECTION('',(-1.,-1.19636101791504E-16,0.));
#754=DIRECTION('',(0.,0.,1.));
#755=DIRECTION('',(0.,1.,0.));
#756=DIRECTION('',(0.,0.,1.));
#757=DIRECTION('',(0.,0.,1.));
#758=DIRECTION('',(-1.,-3.23240399250336E-16,0.));
#759=DIRECTION('',(3.23240399250336E-16,-1.,0.));
#760=DIRECTION('',(0.,0.,1.));
#761=DIRECTION('',(1.,0.,0.));
#762=DIRECTION('',(0.,0.,1.));
#763=DIRECTION('',(1.,0.,0.));
#764=DIRECTION('',(0.,0.,1.));
#765=DIRECTION('',(1.,0.,0.));
#766=DIRECTION('',(0.,0.,1.));
#767=DIRECTION('',(1.,0.,0.));
#768=CARTESIAN_POINT('',(0.,0.,0.));
#769=CARTESIAN_POINT('',(-0.01544,0.0625,0.011398));
#770=CARTESIAN_POINT('',(-0.01544,0.0625,0.01314));
#771=CARTESIAN_POINT('',(-0.01694,0.0625,0.01314));
#772=CARTESIAN_POINT('',(-0.01544,0.0625,0.0114));
#773=CARTESIAN_POINT('',(-0.01394,0.0625,0.0114));
#774=CARTESIAN_POINT('',(0.0155,0.0625,0.011398));
#775=CARTESIAN_POINT('',(0.0155,0.0625,0.01314));
#776=CARTESIAN_POINT('',(0.014,0.0625,0.01314));
#777=CARTESIAN_POINT('',(0.0155,0.0625,0.0114));
#778=CARTESIAN_POINT('',(0.017,0.0625,0.0114));
#779=CARTESIAN_POINT('',(-0.01544,0.0091,0.011398));
#780=CARTESIAN_POINT('',(-0.01544,0.0091,0.01314));
#781=CARTESIAN_POINT('',(-0.01694,0.0091,0.01314));
#782=CARTESIAN_POINT('',(-0.01544,0.0091,0.0114));
#783=CARTESIAN_POINT('',(-0.01394,0.0091,0.0114));
#784=CARTESIAN_POINT('',(0.01556,0.0091,0.011398));
#785=CARTESIAN_POINT('',(0.01556,0.0091,0.01314));
#786=CARTESIAN_POINT('',(0.01406,0.0091,0.01314));
#787=CARTESIAN_POINT('',(0.01556,0.0091,0.0114));
#788=CARTESIAN_POINT('',(0.01706,0.0091,0.0114));
#789=CARTESIAN_POINT('',(0.01875,0.0358,0.011398));
#790=CARTESIAN_POINT('',(0.01875,0.0358,0.0138));
#791=CARTESIAN_POINT('',(0.01875,0.0066,0.0138));
#792=CARTESIAN_POINT('',(0.01875,0.065,0.0138));
#793=CARTESIAN_POINT('',(0.01875,0.0066,0.011398));
#794=CARTESIAN_POINT('',(0.01875,0.0066,0.0114));
#795=CARTESIAN_POINT('',(0.01875,0.0358,0.0114));
#796=CARTESIAN_POINT('',(0.01875,0.06478,0.0114));
#797=CARTESIAN_POINT('',(0.01875,0.06478,0.011398));
#798=CARTESIAN_POINT('',(0.01875,0.06478,0.0136));
#799=CARTESIAN_POINT('',(0.01875,0.0358,0.0136));
#800=CARTESIAN_POINT('',(0.01875,0.065,0.0136));
#801=CARTESIAN_POINT('',(0.01875,0.065,0.013598));
#802=CARTESIAN_POINT('',(1.38777878078145E-17,0.0066,0.011398));
#803=CARTESIAN_POINT('',(1.38777878078145E-17,0.0066,0.0138));
#804=CARTESIAN_POINT('',(-0.01875,0.0066,0.0138));
#805=CARTESIAN_POINT('',(-0.01875,0.0066,0.013598));
#806=CARTESIAN_POINT('',(-0.01875,0.0066,0.0136));
#807=CARTESIAN_POINT('',(1.38777878078145E-17,0.0066,0.0136));
#808=CARTESIAN_POINT('',(-0.01872,0.0066,0.0136));
#809=CARTESIAN_POINT('',(-0.01872,0.0066,0.011398));
#810=CARTESIAN_POINT('',(-0.01872,0.0066,0.0114));
#811=CARTESIAN_POINT('',(1.38777878078145E-17,0.0066,0.0114));
#812=CARTESIAN_POINT('',(-3.46944695195361E-18,0.065,0.013598));
#813=CARTESIAN_POINT('',(-0.01875,0.065,0.013598));
#814=CARTESIAN_POINT('',(-0.01875,0.065,0.0136));
#815=CARTESIAN_POINT('',(-0.01875,0.065,0.0138));
#816=CARTESIAN_POINT('',(-3.46944695195361E-18,0.065,0.0138));
#817=CARTESIAN_POINT('',(-3.46944695195361E-18,0.065,0.0136));
#818=CARTESIAN_POINT('',(-0.01875,0.0358,0.013598));
#819=CARTESIAN_POINT('',(-0.01875,0.0358,0.0138));
#820=CARTESIAN_POINT('',(-0.01875,0.0358,0.0136));
#821=CARTESIAN_POINT('',(3.00000000000162E-5,0.01149,0.011398));
#822=CARTESIAN_POINT('',(3.00000000000162E-5,0.01149,0.0136));
#823=CARTESIAN_POINT('',(0.01768,0.01149,0.0136));
#824=CARTESIAN_POINT('',(-0.01762,0.01149,0.0136));
#825=CARTESIAN_POINT('',(0.01768,0.01149,0.011398));
#826=CARTESIAN_POINT('',(0.01768,0.01149,0.0114));
#827=CARTESIAN_POINT('',(3.00000000000162E-5,0.01149,0.0114));
#828=CARTESIAN_POINT('',(-0.01762,0.01149,0.0114));
#829=CARTESIAN_POINT('',(-0.01762,0.01149,0.011398));
#830=CARTESIAN_POINT('',(0.01768,0.03579,0.011398));
#831=CARTESIAN_POINT('',(0.01768,0.03579,0.0136));
#832=CARTESIAN_POINT('',(0.01768,0.06009,0.0136));
#833=CARTESIAN_POINT('',(0.01768,0.06009,0.011398));
#834=CARTESIAN_POINT('',(0.01768,0.06009,0.0114));
#835=CARTESIAN_POINT('',(0.01768,0.03579,0.0114));
#836=CARTESIAN_POINT('',(-0.01762,0.03579,0.011398));
#837=CARTESIAN_POINT('',(-0.01762,0.03579,0.0136));
#838=CARTESIAN_POINT('',(-0.01762,0.06009,0.0136));
#839=CARTESIAN_POINT('',(-0.01762,0.03579,0.0114));
#840=CARTESIAN_POINT('',(-0.01762,0.06009,0.0114));
#841=CARTESIAN_POINT('',(-0.01762,0.06009,0.011398));
#842=CARTESIAN_POINT('',(3.00000000000023E-5,0.06009,0.011398));
#843=CARTESIAN_POINT('',(3.00000000000023E-5,0.06009,0.0136));
#844=CARTESIAN_POINT('',(3.00000000000023E-5,0.06009,0.0114));
#845=CARTESIAN_POINT('',(2.99999999999953E-5,0.06478,0.011398));
#846=CARTESIAN_POINT('',(-0.01872,0.06478,0.011398));
#847=CARTESIAN_POINT('',(-0.01872,0.06478,0.0114));
#848=CARTESIAN_POINT('',(-0.01872,0.06478,0.0136));
#849=CARTESIAN_POINT('',(2.99999999999953E-5,0.06478,0.0136));
#850=CARTESIAN_POINT('',(2.99999999999953E-5,0.06478,0.0114));
#851=CARTESIAN_POINT('',(-0.01872,0.03558,0.011398));
#852=CARTESIAN_POINT('',(-0.01872,0.03558,0.0136));
#853=CARTESIAN_POINT('',(-0.01872,0.03558,0.0114));
#854=CARTESIAN_POINT('',(3.00000000000023E-5,0.03558,0.0114));
#855=CARTESIAN_POINT('',(-6.93889390390723E-18,0.,0.015));
#856=CARTESIAN_POINT('',(0.01556,0.0091,0.015));
#857=CARTESIAN_POINT('',(0.0122,0.0091,0.015));
#858=CARTESIAN_POINT('',(-0.01544,0.0625,0.015));
#859=CARTESIAN_POINT('',(-0.0188,0.0625,0.015));
#860=CARTESIAN_POINT('',(0.0155,0.0625,0.015));
#861=CARTESIAN_POINT('',(0.01214,0.0625,0.015));
#862=CARTESIAN_POINT('',(-0.01544,0.0091,0.015));
#863=CARTESIAN_POINT('',(-0.0188,0.0091,0.015));
#864=CARTESIAN_POINT('',(0.01558,0.0375,0.015));
#865=CARTESIAN_POINT('',(0.01558,0.0171,0.015));
#866=CARTESIAN_POINT('',(0.01558,0.0579,0.015));
#867=CARTESIAN_POINT('',(3.00000000000057E-5,0.0171,0.015));
#868=CARTESIAN_POINT('',(-0.01552,0.0171,0.015));
#869=CARTESIAN_POINT('',(-0.01552,0.0375,0.015));
#870=CARTESIAN_POINT('',(-0.01552,0.0579,0.015));
#871=CARTESIAN_POINT('',(2.99999999999918E-5,0.0579,0.015));
#872=CARTESIAN_POINT('',(-1.04083408558608E-17,0.068,0.015));
#873=CARTESIAN_POINT('',(0.02175,0.068,0.015));
#874=CARTESIAN_POINT('',(-0.02175,0.068,0.015));
#875=CARTESIAN_POINT('',(-0.02175,0.0358,0.015));
#876=CARTESIAN_POINT('',(-0.02175,0.0036,0.015));
#877=CARTESIAN_POINT('',(1.04083408558608E-17,0.0036,0.015));
#878=CARTESIAN_POINT('',(0.02175,0.0036,0.015));
#879=CARTESIAN_POINT('',(0.02175,0.0358,0.015));
#880=CARTESIAN_POINT('',(3.00000000000023E-5,0.03558,0.0136));
#881=CARTESIAN_POINT('',(3.00000000000023E-5,0.03558,0.0136));
#882=CARTESIAN_POINT('',(2.99999999999918E-5,0.0579,0.0136));
#883=CARTESIAN_POINT('',(-0.01552,0.0579,0.0136));
#884=CARTESIAN_POINT('',(0.01558,0.0579,0.0136));
#885=CARTESIAN_POINT('',(-0.01552,0.0375,0.0136));
#886=CARTESIAN_POINT('',(-0.01552,0.0171,0.0136));
#887=CARTESIAN_POINT('',(3.00000000000057E-5,0.0171,0.0136));
#888=CARTESIAN_POINT('',(0.01558,0.0171,0.0136));
#889=CARTESIAN_POINT('',(0.01558,0.0375,0.0136));
#890=CARTESIAN_POINT('',(2.99999999999918E-5,0.0579,0.013598));
#891=CARTESIAN_POINT('',(-0.01552,0.0579,0.013598));
#892=CARTESIAN_POINT('',(0.01558,0.0579,0.013598));
#893=CARTESIAN_POINT('',(-0.01552,0.0375,0.013598));
#894=CARTESIAN_POINT('',(-0.01552,0.0171,0.013598));
#895=CARTESIAN_POINT('',(3.00000000000057E-5,0.0171,0.013598));
#896=CARTESIAN_POINT('',(0.01558,0.0171,0.013598));
#897=CARTESIAN_POINT('',(0.01558,0.0375,0.013598));
#898=CARTESIAN_POINT('',(-6.93889390390723E-18,0.,0.0138));
#899=CARTESIAN_POINT('',(-1.04083408558608E-17,0.068,0.0138));
#900=CARTESIAN_POINT('',(-0.02175,0.068,0.0138));
#901=CARTESIAN_POINT('',(0.02175,0.068,0.0138));
#902=CARTESIAN_POINT('',(0.02175,0.0358,0.0138));
#903=CARTESIAN_POINT('',(0.02175,0.0036,0.0138));
#904=CARTESIAN_POINT('',(1.04083408558608E-17,0.0036,0.0138));
#905=CARTESIAN_POINT('',(-0.02175,0.0036,0.0138));
#906=CARTESIAN_POINT('',(-0.02175,0.0358,0.0138));
#907=CARTESIAN_POINT('',(0.02175,0.0358,0.013798));
#908=CARTESIAN_POINT('',(0.02175,0.0036,0.013798));
#909=CARTESIAN_POINT('',(0.02175,0.068,0.013798));
#910=CARTESIAN_POINT('',(1.04083408558608E-17,0.0036,0.013798));
#911=CARTESIAN_POINT('',(-0.02175,0.0036,0.013798));
#912=CARTESIAN_POINT('',(-1.04083408558608E-17,0.068,0.013798));
#913=CARTESIAN_POINT('',(-0.02175,0.068,0.013798));
#914=CARTESIAN_POINT('',(-0.02175,0.0358,0.013798));
#915=CARTESIAN_POINT('',(0.01556,0.0091,0.015));
#916=CARTESIAN_POINT('',(-0.01544,0.0091,0.015));
#917=CARTESIAN_POINT('',(0.0155,0.0625,0.015));
#918=CARTESIAN_POINT('',(-0.01544,0.0625,0.015));
#919=MECHANICAL_DESIGN_GEOMETRIC_PRESENTATION_REPRESENTATION('',(#568),
#920);
#920=(
GEOMETRIC_REPRESENTATION_CONTEXT(3)
GLOBAL_UNCERTAINTY_ASSIGNED_CONTEXT((#921))
GLOBAL_UNIT_ASSIGNED_CONTEXT((#924,#923,#922))
REPRESENTATION_CONTEXT('Screen','TOP_LEVEL_ASSEMBLY_PART')
);
#921=UNCERTAINTY_MEASURE_WITH_UNIT(LENGTH_MEASURE(1.E-8),#924,
'DISTANCE_ACCURACY_VALUE','Maximum Tolerance applied to model');
#922=(
NAMED_UNIT(*)
SI_UNIT($,.STERADIAN.)
SOLID_ANGLE_UNIT()
);
#923=(
NAMED_UNIT(*)
PLANE_ANGLE_UNIT()
SI_UNIT($,.RADIAN.)
);
#924=(
LENGTH_UNIT()
NAMED_UNIT(*)
SI_UNIT($,.METRE.)
);
#925=PRODUCT_DEFINITION_SHAPE('','',#926);
#926=PRODUCT_DEFINITION('','',#928,#927);
#927=PRODUCT_DEFINITION_CONTEXT('',#934,'design');
#928=PRODUCT_DEFINITION_FORMATION_WITH_SPECIFIED_SOURCE('','',#930,
 .NOT_KNOWN.);
#929=PRODUCT_RELATED_PRODUCT_CATEGORY('','',(#930));
#930=PRODUCT('Screen','Screen','Screen',(#932));
#931=PRODUCT_CATEGORY('','');
#932=PRODUCT_CONTEXT('',#934,'mechanical');
#933=APPLICATION_PROTOCOL_DEFINITION('international standard',
'automotive_design',2010,#934);
#934=APPLICATION_CONTEXT(
'core data for automotive mechanical design processes');
ENDSEC;
END-ISO-10303-21;
