ISO-10303-21;
HEADER;
/* Generated by software containing ST-Developer
 * from STEP Tools, Inc. (www.steptools.com) 
 */
/* OPTION: using custom renumber hook */

FILE_DESCRIPTION(
/* description */ ('STEP AP214',
'CAx-IF Rec.Pracs.---User Defined Attributes---1.5---2016-08-15'),
/* implementation_level */ '2;1');

FILE_NAME(
/* name */ 'CASE - Ano',
/* time_stamp */ '2026-06-21T22:30:25Z',
/* author */ (''),
/* organization */ (''),
/* preprocessor_version */ 'ST-DEVELOPER v20',
/* originating_system */ 'ONSHAPE BY PTC INC, 1.216',
/* authorisation */ '  ');

FILE_SCHEMA (('AUTOMOTIVE_DESIGN {1 0 10303 214 3 1 1}'));
ENDSEC;

DATA;
#10=PROPERTY_DEFINITION_REPRESENTATION(#14,#12);
#11=PROPERTY_DEFINITION_REPRESENTATION(#15,#13);
#12=REPRESENTATION('',(#16),#1723);
#13=REPRESENTATION('',(#17),#1723);
#14=PROPERTY_DEFINITION('pmi validation property','',#1728);
#15=PROPERTY_DEFINITION('pmi validation property','',#1728);
#16=VALUE_REPRESENTATION_ITEM('number of annotations',COUNT_MEASURE(0.));
#17=VALUE_REPRESENTATION_ITEM('number of views',COUNT_MEASURE(0.));
#18=SHAPE_REPRESENTATION_RELATIONSHIP('','',#1019,#19);
#19=ADVANCED_BREP_SHAPE_REPRESENTATION('',(#1017),#1723);
#20=CONICAL_SURFACE('',#1064,0.00225,0.785398163397448);
#21=CONICAL_SURFACE('',#1067,0.00225,0.785398163397448);
#22=CONICAL_SURFACE('',#1070,0.00225,0.785398163397448);
#23=CONICAL_SURFACE('',#1073,0.00225,0.785398163397448);
#24=CYLINDRICAL_SURFACE('',#1054,0.01585);
#25=CYLINDRICAL_SURFACE('',#1062,0.0011);
#26=CYLINDRICAL_SURFACE('',#1065,0.0011);
#27=CYLINDRICAL_SURFACE('',#1068,0.0011);
#28=CYLINDRICAL_SURFACE('',#1071,0.0011);
#29=CYLINDRICAL_SURFACE('',#1075,0.0005);
#30=CYLINDRICAL_SURFACE('',#1078,0.000500000000000007);
#31=CYLINDRICAL_SURFACE('',#1081,0.000500000000000008);
#32=CYLINDRICAL_SURFACE('',#1084,0.00125);
#33=CYLINDRICAL_SURFACE('',#1086,0.000500000000000007);
#34=CYLINDRICAL_SURFACE('',#1090,0.000500000000000007);
#35=CYLINDRICAL_SURFACE('',#1093,0.000500000000000009);
#36=CYLINDRICAL_SURFACE('',#1096,0.000500000000000007);
#37=CYLINDRICAL_SURFACE('',#1099,0.00125);
#38=CYLINDRICAL_SURFACE('',#1101,0.000500000000000008);
#39=CYLINDRICAL_SURFACE('',#1105,0.0005);
#40=CYLINDRICAL_SURFACE('',#1108,0.000500000000000007);
#41=CYLINDRICAL_SURFACE('',#1111,0.0005);
#42=CYLINDRICAL_SURFACE('',#1114,0.00125);
#43=CYLINDRICAL_SURFACE('',#1116,0.000500000000000007);
#44=CYLINDRICAL_SURFACE('',#1120,0.0005);
#45=CYLINDRICAL_SURFACE('',#1123,0.000500000000000008);
#46=CYLINDRICAL_SURFACE('',#1126,0.000500000000000007);
#47=CYLINDRICAL_SURFACE('',#1129,0.00125);
#48=CYLINDRICAL_SURFACE('',#1131,0.000500000000000008);
#49=LINE('',#1455,#125);
#50=LINE('',#1460,#126);
#51=LINE('',#1464,#127);
#52=LINE('',#1468,#128);
#53=LINE('',#1471,#129);
#54=LINE('',#1476,#130);
#55=LINE('',#1480,#131);
#56=LINE('',#1484,#132);
#57=LINE('',#1490,#133);
#58=LINE('',#1494,#134);
#59=LINE('',#1498,#135);
#60=LINE('',#1502,#136);
#61=LINE('',#1505,#137);
#62=LINE('',#1508,#138);
#63=LINE('',#1510,#139);
#64=LINE('',#1512,#140);
#65=LINE('',#1516,#141);
#66=LINE('',#1520,#142);
#67=LINE('',#1524,#143);
#68=LINE('',#1528,#144);
#69=LINE('',#1535,#145);
#70=LINE('',#1538,#146);
#71=LINE('',#1539,#147);
#72=LINE('',#1541,#148);
#73=LINE('',#1543,#149);
#74=LINE('',#1545,#150);
#75=LINE('',#1547,#151);
#76=LINE('',#1552,#152);
#77=LINE('',#1579,#153);
#78=LINE('',#1581,#154);
#79=LINE('',#1583,#155);
#80=LINE('',#1587,#156);
#81=LINE('',#1589,#157);
#82=LINE('',#1591,#158);
#83=LINE('',#1595,#159);
#84=LINE('',#1597,#160);
#85=LINE('',#1599,#161);
#86=LINE('',#1603,#162);
#87=LINE('',#1605,#163);
#88=LINE('',#1607,#164);
#89=LINE('',#1615,#165);
#90=LINE('',#1617,#166);
#91=LINE('',#1619,#167);
#92=LINE('',#1623,#168);
#93=LINE('',#1625,#169);
#94=LINE('',#1627,#170);
#95=LINE('',#1631,#171);
#96=LINE('',#1633,#172);
#97=LINE('',#1635,#173);
#98=LINE('',#1639,#174);
#99=LINE('',#1641,#175);
#100=LINE('',#1643,#176);
#101=LINE('',#1651,#177);
#102=LINE('',#1654,#178);
#103=LINE('',#1655,#179);
#104=LINE('',#1659,#180);
#105=LINE('',#1661,#181);
#106=LINE('',#1663,#182);
#107=LINE('',#1667,#183);
#108=LINE('',#1669,#184);
#109=LINE('',#1671,#185);
#110=LINE('',#1675,#186);
#111=LINE('',#1677,#187);
#112=LINE('',#1679,#188);
#113=LINE('',#1687,#189);
#114=LINE('',#1690,#190);
#115=LINE('',#1691,#191);
#116=LINE('',#1695,#192);
#117=LINE('',#1697,#193);
#118=LINE('',#1699,#194);
#119=LINE('',#1703,#195);
#120=LINE('',#1705,#196);
#121=LINE('',#1707,#197);
#122=LINE('',#1711,#198);
#123=LINE('',#1713,#199);
#124=LINE('',#1715,#200);
#125=VECTOR('',#1156,1.);
#126=VECTOR('',#1159,1.);
#127=VECTOR('',#1162,1.);
#128=VECTOR('',#1165,1.);
#129=VECTOR('',#1168,1.);
#130=VECTOR('',#1171,1.);
#131=VECTOR('',#1174,1.);
#132=VECTOR('',#1177,1.);
#133=VECTOR('',#1182,1.);
#134=VECTOR('',#1185,1.);
#135=VECTOR('',#1188,1.);
#136=VECTOR('',#1191,1.);
#137=VECTOR('',#1194,1.);
#138=VECTOR('',#1195,1.);
#139=VECTOR('',#1196,1.);
#140=VECTOR('',#1197,1.);
#141=VECTOR('',#1200,1.);
#142=VECTOR('',#1203,1.);
#143=VECTOR('',#1206,1.);
#144=VECTOR('',#1209,1.);
#145=VECTOR('',#1218,1.);
#146=VECTOR('',#1219,1.);
#147=VECTOR('',#1220,1.);
#148=VECTOR('',#1223,1.);
#149=VECTOR('',#1224,1.);
#150=VECTOR('',#1227,1.);
#151=VECTOR('',#1228,1.);
#152=VECTOR('',#1235,1.);
#153=VECTOR('',#1272,1.);
#154=VECTOR('',#1273,1.);
#155=VECTOR('',#1274,1.);
#156=VECTOR('',#1279,1.);
#157=VECTOR('',#1282,1.);
#158=VECTOR('',#1283,1.);
#159=VECTOR('',#1288,1.);
#160=VECTOR('',#1291,1.);
#161=VECTOR('',#1292,1.);
#162=VECTOR('',#1297,1.);
#163=VECTOR('',#1300,1.);
#164=VECTOR('',#1301,1.);
#165=VECTOR('',#1314,1.);
#166=VECTOR('',#1315,1.);
#167=VECTOR('',#1316,1.);
#168=VECTOR('',#1321,1.);
#169=VECTOR('',#1324,1.);
#170=VECTOR('',#1325,1.);
#171=VECTOR('',#1330,1.);
#172=VECTOR('',#1333,1.);
#173=VECTOR('',#1334,1.);
#174=VECTOR('',#1339,1.);
#175=VECTOR('',#1342,1.);
#176=VECTOR('',#1343,1.);
#177=VECTOR('',#1356,1.);
#178=VECTOR('',#1357,1.);
#179=VECTOR('',#1358,1.);
#180=VECTOR('',#1363,1.);
#181=VECTOR('',#1366,1.);
#182=VECTOR('',#1367,1.);
#183=VECTOR('',#1372,1.);
#184=VECTOR('',#1375,1.);
#185=VECTOR('',#1376,1.);
#186=VECTOR('',#1381,1.);
#187=VECTOR('',#1384,1.);
#188=VECTOR('',#1385,1.);
#189=VECTOR('',#1398,1.);
#190=VECTOR('',#1399,1.);
#191=VECTOR('',#1400,1.);
#192=VECTOR('',#1405,1.);
#193=VECTOR('',#1408,1.);
#194=VECTOR('',#1409,1.);
#195=VECTOR('',#1414,1.);
#196=VECTOR('',#1417,1.);
#197=VECTOR('',#1418,1.);
#198=VECTOR('',#1423,1.);
#199=VECTOR('',#1426,1.);
#200=VECTOR('',#1427,1.);
#201=ORIENTED_EDGE('',*,*,#461,.F.);
#202=ORIENTED_EDGE('',*,*,#462,.T.);
#203=ORIENTED_EDGE('',*,*,#463,.F.);
#204=ORIENTED_EDGE('',*,*,#464,.T.);
#205=ORIENTED_EDGE('',*,*,#465,.F.);
#206=ORIENTED_EDGE('',*,*,#466,.T.);
#207=ORIENTED_EDGE('',*,*,#467,.F.);
#208=ORIENTED_EDGE('',*,*,#468,.F.);
#209=ORIENTED_EDGE('',*,*,#469,.T.);
#210=ORIENTED_EDGE('',*,*,#470,.F.);
#211=ORIENTED_EDGE('',*,*,#471,.T.);
#212=ORIENTED_EDGE('',*,*,#472,.F.);
#213=ORIENTED_EDGE('',*,*,#473,.F.);
#214=ORIENTED_EDGE('',*,*,#474,.F.);
#215=ORIENTED_EDGE('',*,*,#475,.F.);
#216=ORIENTED_EDGE('',*,*,#476,.F.);
#217=ORIENTED_EDGE('',*,*,#477,.T.);
#218=ORIENTED_EDGE('',*,*,#478,.F.);
#219=ORIENTED_EDGE('',*,*,#479,.T.);
#220=ORIENTED_EDGE('',*,*,#480,.F.);
#221=ORIENTED_EDGE('',*,*,#481,.F.);
#222=ORIENTED_EDGE('',*,*,#482,.F.);
#223=ORIENTED_EDGE('',*,*,#483,.F.);
#224=ORIENTED_EDGE('',*,*,#484,.T.);
#225=ORIENTED_EDGE('',*,*,#485,.F.);
#226=ORIENTED_EDGE('',*,*,#486,.T.);
#227=ORIENTED_EDGE('',*,*,#487,.F.);
#228=ORIENTED_EDGE('',*,*,#488,.F.);
#229=ORIENTED_EDGE('',*,*,#489,.F.);
#230=ORIENTED_EDGE('',*,*,#490,.F.);
#231=ORIENTED_EDGE('',*,*,#491,.T.);
#232=ORIENTED_EDGE('',*,*,#492,.F.);
#233=ORIENTED_EDGE('',*,*,#493,.F.);
#234=ORIENTED_EDGE('',*,*,#494,.T.);
#235=ORIENTED_EDGE('',*,*,#495,.T.);
#236=ORIENTED_EDGE('',*,*,#496,.F.);
#237=ORIENTED_EDGE('',*,*,#497,.T.);
#238=ORIENTED_EDGE('',*,*,#498,.F.);
#239=ORIENTED_EDGE('',*,*,#499,.T.);
#240=ORIENTED_EDGE('',*,*,#500,.F.);
#241=ORIENTED_EDGE('',*,*,#501,.F.);
#242=ORIENTED_EDGE('',*,*,#502,.F.);
#243=ORIENTED_EDGE('',*,*,#503,.F.);
#244=ORIENTED_EDGE('',*,*,#504,.F.);
#245=ORIENTED_EDGE('',*,*,#505,.T.);
#246=ORIENTED_EDGE('',*,*,#506,.F.);
#247=ORIENTED_EDGE('',*,*,#507,.F.);
#248=ORIENTED_EDGE('',*,*,#492,.T.);
#249=ORIENTED_EDGE('',*,*,#508,.T.);
#250=ORIENTED_EDGE('',*,*,#509,.T.);
#251=ORIENTED_EDGE('',*,*,#508,.F.);
#252=ORIENTED_EDGE('',*,*,#495,.F.);
#253=ORIENTED_EDGE('',*,*,#510,.T.);
#254=ORIENTED_EDGE('',*,*,#511,.T.);
#255=ORIENTED_EDGE('',*,*,#510,.F.);
#256=ORIENTED_EDGE('',*,*,#494,.F.);
#257=ORIENTED_EDGE('',*,*,#512,.T.);
#258=ORIENTED_EDGE('',*,*,#491,.F.);
#259=ORIENTED_EDGE('',*,*,#513,.T.);
#260=ORIENTED_EDGE('',*,*,#514,.F.);
#261=ORIENTED_EDGE('',*,*,#512,.F.);
#262=ORIENTED_EDGE('',*,*,#493,.T.);
#263=ORIENTED_EDGE('',*,*,#507,.T.);
#264=ORIENTED_EDGE('',*,*,#515,.T.);
#265=ORIENTED_EDGE('',*,*,#516,.T.);
#266=ORIENTED_EDGE('',*,*,#517,.T.);
#267=ORIENTED_EDGE('',*,*,#518,.T.);
#268=ORIENTED_EDGE('',*,*,#513,.F.);
#269=ORIENTED_EDGE('',*,*,#506,.T.);
#270=ORIENTED_EDGE('',*,*,#509,.F.);
#271=ORIENTED_EDGE('',*,*,#511,.F.);
#272=ORIENTED_EDGE('',*,*,#514,.T.);
#273=ORIENTED_EDGE('',*,*,#519,.F.);
#274=ORIENTED_EDGE('',*,*,#465,.T.);
#275=ORIENTED_EDGE('',*,*,#519,.T.);
#276=ORIENTED_EDGE('',*,*,#518,.F.);
#277=ORIENTED_EDGE('',*,*,#520,.F.);
#278=ORIENTED_EDGE('',*,*,#463,.T.);
#279=ORIENTED_EDGE('',*,*,#520,.T.);
#280=ORIENTED_EDGE('',*,*,#517,.F.);
#281=ORIENTED_EDGE('',*,*,#521,.F.);
#282=ORIENTED_EDGE('',*,*,#504,.T.);
#283=ORIENTED_EDGE('',*,*,#521,.T.);
#284=ORIENTED_EDGE('',*,*,#516,.F.);
#285=ORIENTED_EDGE('',*,*,#522,.F.);
#286=ORIENTED_EDGE('',*,*,#461,.T.);
#287=ORIENTED_EDGE('',*,*,#522,.T.);
#288=ORIENTED_EDGE('',*,*,#515,.F.);
#289=ORIENTED_EDGE('',*,*,#523,.F.);
#290=ORIENTED_EDGE('',*,*,#524,.T.);
#291=ORIENTED_EDGE('',*,*,#525,.T.);
#292=ORIENTED_EDGE('',*,*,#484,.F.);
#293=ORIENTED_EDGE('',*,*,#526,.F.);
#294=ORIENTED_EDGE('',*,*,#523,.T.);
#295=ORIENTED_EDGE('',*,*,#483,.T.);
#296=ORIENTED_EDGE('',*,*,#527,.F.);
#297=ORIENTED_EDGE('',*,*,#528,.F.);
#298=ORIENTED_EDGE('',*,*,#527,.T.);
#299=ORIENTED_EDGE('',*,*,#490,.T.);
#300=ORIENTED_EDGE('',*,*,#529,.F.);
#301=ORIENTED_EDGE('',*,*,#530,.F.);
#302=ORIENTED_EDGE('',*,*,#529,.T.);
#303=ORIENTED_EDGE('',*,*,#489,.T.);
#304=ORIENTED_EDGE('',*,*,#531,.F.);
#305=ORIENTED_EDGE('',*,*,#532,.F.);
#306=ORIENTED_EDGE('',*,*,#531,.T.);
#307=ORIENTED_EDGE('',*,*,#488,.T.);
#308=ORIENTED_EDGE('',*,*,#533,.F.);
#309=ORIENTED_EDGE('',*,*,#534,.F.);
#310=ORIENTED_EDGE('',*,*,#533,.T.);
#311=ORIENTED_EDGE('',*,*,#487,.T.);
#312=ORIENTED_EDGE('',*,*,#535,.F.);
#313=ORIENTED_EDGE('',*,*,#536,.F.);
#314=ORIENTED_EDGE('',*,*,#537,.T.);
#315=ORIENTED_EDGE('',*,*,#535,.T.);
#316=ORIENTED_EDGE('',*,*,#486,.F.);
#317=ORIENTED_EDGE('',*,*,#505,.F.);
#318=ORIENTED_EDGE('',*,*,#538,.T.);
#319=ORIENTED_EDGE('',*,*,#539,.F.);
#320=ORIENTED_EDGE('',*,*,#536,.T.);
#321=ORIENTED_EDGE('',*,*,#485,.T.);
#322=ORIENTED_EDGE('',*,*,#525,.F.);
#323=ORIENTED_EDGE('',*,*,#524,.F.);
#324=ORIENTED_EDGE('',*,*,#526,.T.);
#325=ORIENTED_EDGE('',*,*,#528,.T.);
#326=ORIENTED_EDGE('',*,*,#530,.T.);
#327=ORIENTED_EDGE('',*,*,#532,.T.);
#328=ORIENTED_EDGE('',*,*,#534,.T.);
#329=ORIENTED_EDGE('',*,*,#537,.F.);
#330=ORIENTED_EDGE('',*,*,#539,.T.);
#331=ORIENTED_EDGE('',*,*,#538,.F.);
#332=ORIENTED_EDGE('',*,*,#540,.F.);
#333=ORIENTED_EDGE('',*,*,#541,.T.);
#334=ORIENTED_EDGE('',*,*,#542,.T.);
#335=ORIENTED_EDGE('',*,*,#497,.F.);
#336=ORIENTED_EDGE('',*,*,#543,.F.);
#337=ORIENTED_EDGE('',*,*,#540,.T.);
#338=ORIENTED_EDGE('',*,*,#496,.T.);
#339=ORIENTED_EDGE('',*,*,#544,.F.);
#340=ORIENTED_EDGE('',*,*,#545,.F.);
#341=ORIENTED_EDGE('',*,*,#544,.T.);
#342=ORIENTED_EDGE('',*,*,#503,.T.);
#343=ORIENTED_EDGE('',*,*,#546,.F.);
#344=ORIENTED_EDGE('',*,*,#547,.F.);
#345=ORIENTED_EDGE('',*,*,#546,.T.);
#346=ORIENTED_EDGE('',*,*,#502,.T.);
#347=ORIENTED_EDGE('',*,*,#548,.F.);
#348=ORIENTED_EDGE('',*,*,#549,.F.);
#349=ORIENTED_EDGE('',*,*,#548,.T.);
#350=ORIENTED_EDGE('',*,*,#501,.T.);
#351=ORIENTED_EDGE('',*,*,#550,.F.);
#352=ORIENTED_EDGE('',*,*,#551,.F.);
#353=ORIENTED_EDGE('',*,*,#550,.T.);
#354=ORIENTED_EDGE('',*,*,#500,.T.);
#355=ORIENTED_EDGE('',*,*,#552,.F.);
#356=ORIENTED_EDGE('',*,*,#553,.F.);
#357=ORIENTED_EDGE('',*,*,#554,.T.);
#358=ORIENTED_EDGE('',*,*,#552,.T.);
#359=ORIENTED_EDGE('',*,*,#499,.F.);
#360=ORIENTED_EDGE('',*,*,#466,.F.);
#361=ORIENTED_EDGE('',*,*,#555,.T.);
#362=ORIENTED_EDGE('',*,*,#556,.F.);
#363=ORIENTED_EDGE('',*,*,#553,.T.);
#364=ORIENTED_EDGE('',*,*,#498,.T.);
#365=ORIENTED_EDGE('',*,*,#542,.F.);
#366=ORIENTED_EDGE('',*,*,#541,.F.);
#367=ORIENTED_EDGE('',*,*,#543,.T.);
#368=ORIENTED_EDGE('',*,*,#545,.T.);
#369=ORIENTED_EDGE('',*,*,#547,.T.);
#370=ORIENTED_EDGE('',*,*,#549,.T.);
#371=ORIENTED_EDGE('',*,*,#551,.T.);
#372=ORIENTED_EDGE('',*,*,#554,.F.);
#373=ORIENTED_EDGE('',*,*,#556,.T.);
#374=ORIENTED_EDGE('',*,*,#555,.F.);
#375=ORIENTED_EDGE('',*,*,#557,.F.);
#376=ORIENTED_EDGE('',*,*,#558,.T.);
#377=ORIENTED_EDGE('',*,*,#475,.T.);
#378=ORIENTED_EDGE('',*,*,#559,.F.);
#379=ORIENTED_EDGE('',*,*,#560,.F.);
#380=ORIENTED_EDGE('',*,*,#559,.T.);
#381=ORIENTED_EDGE('',*,*,#482,.T.);
#382=ORIENTED_EDGE('',*,*,#561,.F.);
#383=ORIENTED_EDGE('',*,*,#562,.F.);
#384=ORIENTED_EDGE('',*,*,#561,.T.);
#385=ORIENTED_EDGE('',*,*,#481,.T.);
#386=ORIENTED_EDGE('',*,*,#563,.F.);
#387=ORIENTED_EDGE('',*,*,#564,.F.);
#388=ORIENTED_EDGE('',*,*,#563,.T.);
#389=ORIENTED_EDGE('',*,*,#480,.T.);
#390=ORIENTED_EDGE('',*,*,#565,.F.);
#391=ORIENTED_EDGE('',*,*,#566,.F.);
#392=ORIENTED_EDGE('',*,*,#567,.T.);
#393=ORIENTED_EDGE('',*,*,#565,.T.);
#394=ORIENTED_EDGE('',*,*,#479,.F.);
#395=ORIENTED_EDGE('',*,*,#568,.F.);
#396=ORIENTED_EDGE('',*,*,#566,.T.);
#397=ORIENTED_EDGE('',*,*,#478,.T.);
#398=ORIENTED_EDGE('',*,*,#569,.F.);
#399=ORIENTED_EDGE('',*,*,#570,.F.);
#400=ORIENTED_EDGE('',*,*,#571,.T.);
#401=ORIENTED_EDGE('',*,*,#569,.T.);
#402=ORIENTED_EDGE('',*,*,#477,.F.);
#403=ORIENTED_EDGE('',*,*,#464,.F.);
#404=ORIENTED_EDGE('',*,*,#572,.T.);
#405=ORIENTED_EDGE('',*,*,#573,.F.);
#406=ORIENTED_EDGE('',*,*,#570,.T.);
#407=ORIENTED_EDGE('',*,*,#476,.T.);
#408=ORIENTED_EDGE('',*,*,#558,.F.);
#409=ORIENTED_EDGE('',*,*,#573,.T.);
#410=ORIENTED_EDGE('',*,*,#557,.T.);
#411=ORIENTED_EDGE('',*,*,#560,.T.);
#412=ORIENTED_EDGE('',*,*,#562,.T.);
#413=ORIENTED_EDGE('',*,*,#564,.T.);
#414=ORIENTED_EDGE('',*,*,#567,.F.);
#415=ORIENTED_EDGE('',*,*,#568,.T.);
#416=ORIENTED_EDGE('',*,*,#571,.F.);
#417=ORIENTED_EDGE('',*,*,#572,.F.);
#418=ORIENTED_EDGE('',*,*,#574,.F.);
#419=ORIENTED_EDGE('',*,*,#575,.T.);
#420=ORIENTED_EDGE('',*,*,#467,.T.);
#421=ORIENTED_EDGE('',*,*,#576,.F.);
#422=ORIENTED_EDGE('',*,*,#577,.F.);
#423=ORIENTED_EDGE('',*,*,#576,.T.);
#424=ORIENTED_EDGE('',*,*,#474,.T.);
#425=ORIENTED_EDGE('',*,*,#578,.F.);
#426=ORIENTED_EDGE('',*,*,#579,.F.);
#427=ORIENTED_EDGE('',*,*,#578,.T.);
#428=ORIENTED_EDGE('',*,*,#473,.T.);
#429=ORIENTED_EDGE('',*,*,#580,.F.);
#430=ORIENTED_EDGE('',*,*,#581,.F.);
#431=ORIENTED_EDGE('',*,*,#580,.T.);
#432=ORIENTED_EDGE('',*,*,#472,.T.);
#433=ORIENTED_EDGE('',*,*,#582,.F.);
#434=ORIENTED_EDGE('',*,*,#583,.F.);
#435=ORIENTED_EDGE('',*,*,#584,.T.);
#436=ORIENTED_EDGE('',*,*,#582,.T.);
#437=ORIENTED_EDGE('',*,*,#471,.F.);
#438=ORIENTED_EDGE('',*,*,#585,.F.);
#439=ORIENTED_EDGE('',*,*,#583,.T.);
#440=ORIENTED_EDGE('',*,*,#470,.T.);
#441=ORIENTED_EDGE('',*,*,#586,.F.);
#442=ORIENTED_EDGE('',*,*,#587,.F.);
#443=ORIENTED_EDGE('',*,*,#588,.T.);
#444=ORIENTED_EDGE('',*,*,#586,.T.);
#445=ORIENTED_EDGE('',*,*,#469,.F.);
#446=ORIENTED_EDGE('',*,*,#462,.F.);
#447=ORIENTED_EDGE('',*,*,#589,.T.);
#448=ORIENTED_EDGE('',*,*,#590,.F.);
#449=ORIENTED_EDGE('',*,*,#587,.T.);
#450=ORIENTED_EDGE('',*,*,#468,.T.);
#451=ORIENTED_EDGE('',*,*,#575,.F.);
#452=ORIENTED_EDGE('',*,*,#590,.T.);
#453=ORIENTED_EDGE('',*,*,#574,.T.);
#454=ORIENTED_EDGE('',*,*,#577,.T.);
#455=ORIENTED_EDGE('',*,*,#579,.T.);
#456=ORIENTED_EDGE('',*,*,#581,.T.);
#457=ORIENTED_EDGE('',*,*,#584,.F.);
#458=ORIENTED_EDGE('',*,*,#585,.T.);
#459=ORIENTED_EDGE('',*,*,#588,.F.);
#460=ORIENTED_EDGE('',*,*,#589,.F.);
#461=EDGE_CURVE('',#591,#591,#685,.F.);
#462=EDGE_CURVE('',#592,#592,#686,.T.);
#463=EDGE_CURVE('',#593,#593,#687,.F.);
#464=EDGE_CURVE('',#594,#594,#688,.T.);
#465=EDGE_CURVE('',#595,#595,#689,.F.);
#466=EDGE_CURVE('',#596,#596,#690,.T.);
#467=EDGE_CURVE('',#597,#598,#49,.T.);
#468=EDGE_CURVE('',#599,#597,#691,.T.);
#469=EDGE_CURVE('',#599,#600,#50,.T.);
#470=EDGE_CURVE('',#601,#600,#692,.T.);
#471=EDGE_CURVE('',#601,#602,#51,.T.);
#472=EDGE_CURVE('',#603,#602,#693,.T.);
#473=EDGE_CURVE('',#604,#603,#52,.T.);
#474=EDGE_CURVE('',#598,#604,#694,.T.);
#475=EDGE_CURVE('',#605,#606,#53,.T.);
#476=EDGE_CURVE('',#607,#605,#695,.T.);
#477=EDGE_CURVE('',#607,#608,#54,.T.);
#478=EDGE_CURVE('',#609,#608,#696,.T.);
#479=EDGE_CURVE('',#609,#610,#55,.T.);
#480=EDGE_CURVE('',#611,#610,#697,.T.);
#481=EDGE_CURVE('',#612,#611,#56,.T.);
#482=EDGE_CURVE('',#606,#612,#698,.T.);
#483=EDGE_CURVE('',#613,#614,#699,.T.);
#484=EDGE_CURVE('',#613,#615,#57,.T.);
#485=EDGE_CURVE('',#616,#615,#700,.T.);
#486=EDGE_CURVE('',#616,#617,#58,.T.);
#487=EDGE_CURVE('',#618,#617,#701,.T.);
#488=EDGE_CURVE('',#619,#618,#59,.T.);
#489=EDGE_CURVE('',#620,#619,#702,.T.);
#490=EDGE_CURVE('',#614,#620,#60,.T.);
#491=EDGE_CURVE('',#621,#621,#703,.T.);
#492=EDGE_CURVE('',#622,#623,#61,.T.);
#493=EDGE_CURVE('',#624,#622,#62,.T.);
#494=EDGE_CURVE('',#624,#625,#63,.T.);
#495=EDGE_CURVE('',#625,#623,#64,.T.);
#496=EDGE_CURVE('',#626,#627,#704,.T.);
#497=EDGE_CURVE('',#626,#628,#65,.T.);
#498=EDGE_CURVE('',#629,#628,#705,.T.);
#499=EDGE_CURVE('',#629,#630,#66,.T.);
#500=EDGE_CURVE('',#631,#630,#706,.T.);
#501=EDGE_CURVE('',#632,#631,#67,.T.);
#502=EDGE_CURVE('',#633,#632,#707,.T.);
#503=EDGE_CURVE('',#627,#633,#68,.T.);
#504=EDGE_CURVE('',#634,#634,#708,.F.);
#505=EDGE_CURVE('',#635,#635,#709,.T.);
#506=EDGE_CURVE('',#636,#637,#69,.T.);
#507=EDGE_CURVE('',#622,#636,#70,.T.);
#508=EDGE_CURVE('',#623,#637,#71,.T.);
#509=EDGE_CURVE('',#638,#637,#72,.T.);
#510=EDGE_CURVE('',#625,#638,#73,.T.);
#511=EDGE_CURVE('',#639,#638,#74,.T.);
#512=EDGE_CURVE('',#624,#639,#75,.T.);
#513=EDGE_CURVE('',#640,#640,#710,.T.);
#514=EDGE_CURVE('',#639,#636,#76,.T.);
#515=EDGE_CURVE('',#641,#641,#711,.T.);
#516=EDGE_CURVE('',#642,#642,#712,.T.);
#517=EDGE_CURVE('',#643,#643,#713,.T.);
#518=EDGE_CURVE('',#644,#644,#714,.T.);
#519=EDGE_CURVE('',#645,#645,#715,.T.);
#520=EDGE_CURVE('',#646,#646,#716,.T.);
#521=EDGE_CURVE('',#647,#647,#717,.T.);
#522=EDGE_CURVE('',#648,#648,#718,.T.);
#523=EDGE_CURVE('',#649,#613,#77,.T.);
#524=EDGE_CURVE('',#649,#650,#78,.T.);
#525=EDGE_CURVE('',#650,#615,#79,.T.);
#526=EDGE_CURVE('',#649,#651,#719,.T.);
#527=EDGE_CURVE('',#651,#614,#80,.T.);
#528=EDGE_CURVE('',#651,#652,#81,.T.);
#529=EDGE_CURVE('',#652,#620,#82,.T.);
#530=EDGE_CURVE('',#652,#653,#720,.T.);
#531=EDGE_CURVE('',#653,#619,#83,.T.);
#532=EDGE_CURVE('',#653,#654,#84,.T.);
#533=EDGE_CURVE('',#654,#618,#85,.T.);
#534=EDGE_CURVE('',#654,#655,#721,.T.);
#535=EDGE_CURVE('',#655,#617,#86,.T.);
#536=EDGE_CURVE('',#656,#616,#87,.T.);
#537=EDGE_CURVE('',#656,#655,#88,.T.);
#538=EDGE_CURVE('',#657,#657,#722,.T.);
#539=EDGE_CURVE('',#656,#650,#723,.T.);
#540=EDGE_CURVE('',#658,#626,#89,.T.);
#541=EDGE_CURVE('',#658,#659,#90,.T.);
#542=EDGE_CURVE('',#659,#628,#91,.T.);
#543=EDGE_CURVE('',#658,#660,#724,.T.);
#544=EDGE_CURVE('',#660,#627,#92,.T.);
#545=EDGE_CURVE('',#660,#661,#93,.T.);
#546=EDGE_CURVE('',#661,#633,#94,.T.);
#547=EDGE_CURVE('',#661,#662,#725,.T.);
#548=EDGE_CURVE('',#662,#632,#95,.T.);
#549=EDGE_CURVE('',#662,#663,#96,.T.);
#550=EDGE_CURVE('',#663,#631,#97,.T.);
#551=EDGE_CURVE('',#663,#664,#726,.T.);
#552=EDGE_CURVE('',#664,#630,#98,.T.);
#553=EDGE_CURVE('',#665,#629,#99,.T.);
#554=EDGE_CURVE('',#665,#664,#100,.T.);
#555=EDGE_CURVE('',#666,#666,#727,.T.);
#556=EDGE_CURVE('',#665,#659,#728,.T.);
#557=EDGE_CURVE('',#667,#668,#101,.T.);
#558=EDGE_CURVE('',#667,#605,#102,.T.);
#559=EDGE_CURVE('',#668,#606,#103,.T.);
#560=EDGE_CURVE('',#668,#669,#729,.T.);
#561=EDGE_CURVE('',#669,#612,#104,.T.);
#562=EDGE_CURVE('',#669,#670,#105,.T.);
#563=EDGE_CURVE('',#670,#611,#106,.T.);
#564=EDGE_CURVE('',#670,#671,#730,.T.);
#565=EDGE_CURVE('',#671,#610,#107,.T.);
#566=EDGE_CURVE('',#672,#609,#108,.T.);
#567=EDGE_CURVE('',#672,#671,#109,.T.);
#568=EDGE_CURVE('',#672,#673,#731,.T.);
#569=EDGE_CURVE('',#673,#608,#110,.T.);
#570=EDGE_CURVE('',#674,#607,#111,.T.);
#571=EDGE_CURVE('',#674,#673,#112,.T.);
#572=EDGE_CURVE('',#675,#675,#732,.T.);
#573=EDGE_CURVE('',#674,#667,#733,.T.);
#574=EDGE_CURVE('',#676,#677,#113,.T.);
#575=EDGE_CURVE('',#676,#597,#114,.T.);
#576=EDGE_CURVE('',#677,#598,#115,.T.);
#577=EDGE_CURVE('',#677,#678,#734,.T.);
#578=EDGE_CURVE('',#678,#604,#116,.T.);
#579=EDGE_CURVE('',#678,#679,#117,.T.);
#580=EDGE_CURVE('',#679,#603,#118,.T.);
#581=EDGE_CURVE('',#679,#680,#735,.T.);
#582=EDGE_CURVE('',#680,#602,#119,.T.);
#583=EDGE_CURVE('',#681,#601,#120,.T.);
#584=EDGE_CURVE('',#681,#680,#121,.T.);
#585=EDGE_CURVE('',#681,#682,#736,.T.);
#586=EDGE_CURVE('',#682,#600,#122,.T.);
#587=EDGE_CURVE('',#683,#599,#123,.T.);
#588=EDGE_CURVE('',#683,#682,#124,.T.);
#589=EDGE_CURVE('',#684,#684,#737,.T.);
#590=EDGE_CURVE('',#683,#676,#738,.T.);
#591=VERTEX_POINT('',#1441);
#592=VERTEX_POINT('',#1443);
#593=VERTEX_POINT('',#1446);
#594=VERTEX_POINT('',#1448);
#595=VERTEX_POINT('',#1451);
#596=VERTEX_POINT('',#1453);
#597=VERTEX_POINT('',#1456);
#598=VERTEX_POINT('',#1457);
#599=VERTEX_POINT('',#1459);
#600=VERTEX_POINT('',#1461);
#601=VERTEX_POINT('',#1463);
#602=VERTEX_POINT('',#1465);
#603=VERTEX_POINT('',#1467);
#604=VERTEX_POINT('',#1469);
#605=VERTEX_POINT('',#1472);
#606=VERTEX_POINT('',#1473);
#607=VERTEX_POINT('',#1475);
#608=VERTEX_POINT('',#1477);
#609=VERTEX_POINT('',#1479);
#610=VERTEX_POINT('',#1481);
#611=VERTEX_POINT('',#1483);
#612=VERTEX_POINT('',#1485);
#613=VERTEX_POINT('',#1488);
#614=VERTEX_POINT('',#1489);
#615=VERTEX_POINT('',#1491);
#616=VERTEX_POINT('',#1493);
#617=VERTEX_POINT('',#1495);
#618=VERTEX_POINT('',#1497);
#619=VERTEX_POINT('',#1499);
#620=VERTEX_POINT('',#1501);
#621=VERTEX_POINT('',#1504);
#622=VERTEX_POINT('',#1506);
#623=VERTEX_POINT('',#1507);
#624=VERTEX_POINT('',#1509);
#625=VERTEX_POINT('',#1511);
#626=VERTEX_POINT('',#1514);
#627=VERTEX_POINT('',#1515);
#628=VERTEX_POINT('',#1517);
#629=VERTEX_POINT('',#1519);
#630=VERTEX_POINT('',#1521);
#631=VERTEX_POINT('',#1523);
#632=VERTEX_POINT('',#1525);
#633=VERTEX_POINT('',#1527);
#634=VERTEX_POINT('',#1531);
#635=VERTEX_POINT('',#1533);
#636=VERTEX_POINT('',#1536);
#637=VERTEX_POINT('',#1537);
#638=VERTEX_POINT('',#1542);
#639=VERTEX_POINT('',#1546);
#640=VERTEX_POINT('',#1550);
#641=VERTEX_POINT('',#1555);
#642=VERTEX_POINT('',#1557);
#643=VERTEX_POINT('',#1559);
#644=VERTEX_POINT('',#1561);
#645=VERTEX_POINT('',#1564);
#646=VERTEX_POINT('',#1568);
#647=VERTEX_POINT('',#1572);
#648=VERTEX_POINT('',#1576);
#649=VERTEX_POINT('',#1580);
#650=VERTEX_POINT('',#1582);
#651=VERTEX_POINT('',#1586);
#652=VERTEX_POINT('',#1590);
#653=VERTEX_POINT('',#1594);
#654=VERTEX_POINT('',#1598);
#655=VERTEX_POINT('',#1602);
#656=VERTEX_POINT('',#1606);
#657=VERTEX_POINT('',#1610);
#658=VERTEX_POINT('',#1616);
#659=VERTEX_POINT('',#1618);
#660=VERTEX_POINT('',#1622);
#661=VERTEX_POINT('',#1626);
#662=VERTEX_POINT('',#1630);
#663=VERTEX_POINT('',#1634);
#664=VERTEX_POINT('',#1638);
#665=VERTEX_POINT('',#1642);
#666=VERTEX_POINT('',#1646);
#667=VERTEX_POINT('',#1652);
#668=VERTEX_POINT('',#1653);
#669=VERTEX_POINT('',#1658);
#670=VERTEX_POINT('',#1662);
#671=VERTEX_POINT('',#1666);
#672=VERTEX_POINT('',#1670);
#673=VERTEX_POINT('',#1674);
#674=VERTEX_POINT('',#1678);
#675=VERTEX_POINT('',#1682);
#676=VERTEX_POINT('',#1688);
#677=VERTEX_POINT('',#1689);
#678=VERTEX_POINT('',#1694);
#679=VERTEX_POINT('',#1698);
#680=VERTEX_POINT('',#1702);
#681=VERTEX_POINT('',#1706);
#682=VERTEX_POINT('',#1710);
#683=VERTEX_POINT('',#1714);
#684=VERTEX_POINT('',#1718);
#685=CIRCLE('',#1022,0.0011);
#686=CIRCLE('',#1023,0.00125);
#687=CIRCLE('',#1025,0.0011);
#688=CIRCLE('',#1026,0.00125);
#689=CIRCLE('',#1028,0.0011);
#690=CIRCLE('',#1029,0.00125);
#691=CIRCLE('',#1031,0.000500000000000008);
#692=CIRCLE('',#1032,0.000500000000000007);
#693=CIRCLE('',#1033,0.000500000000000008);
#694=CIRCLE('',#1034,0.0005);
#695=CIRCLE('',#1035,0.000500000000000007);
#696=CIRCLE('',#1036,0.0005);
#697=CIRCLE('',#1037,0.000500000000000007);
#698=CIRCLE('',#1038,0.0005);
#699=CIRCLE('',#1039,0.0005);
#700=CIRCLE('',#1040,0.000500000000000007);
#701=CIRCLE('',#1041,0.000500000000000008);
#702=CIRCLE('',#1042,0.000500000000000007);
#703=CIRCLE('',#1043,0.01585);
#704=CIRCLE('',#1044,0.000500000000000007);
#705=CIRCLE('',#1045,0.000500000000000008);
#706=CIRCLE('',#1046,0.000500000000000007);
#707=CIRCLE('',#1047,0.000500000000000009);
#708=CIRCLE('',#1049,0.0011);
#709=CIRCLE('',#1050,0.00125);
#710=CIRCLE('',#1055,0.01585);
#711=CIRCLE('',#1058,0.00225);
#712=CIRCLE('',#1059,0.00225);
#713=CIRCLE('',#1060,0.00225);
#714=CIRCLE('',#1061,0.00225);
#715=CIRCLE('',#1063,0.0011);
#716=CIRCLE('',#1066,0.0011);
#717=CIRCLE('',#1069,0.0011);
#718=CIRCLE('',#1072,0.0011);
#719=CIRCLE('',#1076,0.0005);
#720=CIRCLE('',#1079,0.000500000000000007);
#721=CIRCLE('',#1082,0.000500000000000008);
#722=CIRCLE('',#1085,0.00125);
#723=CIRCLE('',#1087,0.000500000000000007);
#724=CIRCLE('',#1091,0.000500000000000007);
#725=CIRCLE('',#1094,0.000500000000000009);
#726=CIRCLE('',#1097,0.000500000000000007);
#727=CIRCLE('',#1100,0.00125);
#728=CIRCLE('',#1102,0.000500000000000008);
#729=CIRCLE('',#1106,0.0005);
#730=CIRCLE('',#1109,0.000500000000000007);
#731=CIRCLE('',#1112,0.0005);
#732=CIRCLE('',#1115,0.00125);
#733=CIRCLE('',#1117,0.000500000000000007);
#734=CIRCLE('',#1121,0.0005);
#735=CIRCLE('',#1124,0.000500000000000008);
#736=CIRCLE('',#1127,0.000500000000000007);
#737=CIRCLE('',#1130,0.00125);
#738=CIRCLE('',#1132,0.000500000000000008);
#739=EDGE_LOOP('',(#201));
#740=EDGE_LOOP('',(#202));
#741=EDGE_LOOP('',(#203));
#742=EDGE_LOOP('',(#204));
#743=EDGE_LOOP('',(#205));
#744=EDGE_LOOP('',(#206));
#745=EDGE_LOOP('',(#207,#208,#209,#210,#211,#212,#213,#214));
#746=EDGE_LOOP('',(#215,#216,#217,#218,#219,#220,#221,#222));
#747=EDGE_LOOP('',(#223,#224,#225,#226,#227,#228,#229,#230));
#748=EDGE_LOOP('',(#231));
#749=EDGE_LOOP('',(#232,#233,#234,#235));
#750=EDGE_LOOP('',(#236,#237,#238,#239,#240,#241,#242,#243));
#751=EDGE_LOOP('',(#244));
#752=EDGE_LOOP('',(#245));
#753=EDGE_LOOP('',(#246,#247,#248,#249));
#754=EDGE_LOOP('',(#250,#251,#252,#253));
#755=EDGE_LOOP('',(#254,#255,#256,#257));
#756=EDGE_LOOP('',(#258));
#757=EDGE_LOOP('',(#259));
#758=EDGE_LOOP('',(#260,#261,#262,#263));
#759=EDGE_LOOP('',(#264));
#760=EDGE_LOOP('',(#265));
#761=EDGE_LOOP('',(#266));
#762=EDGE_LOOP('',(#267));
#763=EDGE_LOOP('',(#268));
#764=EDGE_LOOP('',(#269,#270,#271,#272));
#765=EDGE_LOOP('',(#273));
#766=EDGE_LOOP('',(#274));
#767=EDGE_LOOP('',(#275));
#768=EDGE_LOOP('',(#276));
#769=EDGE_LOOP('',(#277));
#770=EDGE_LOOP('',(#278));
#771=EDGE_LOOP('',(#279));
#772=EDGE_LOOP('',(#280));
#773=EDGE_LOOP('',(#281));
#774=EDGE_LOOP('',(#282));
#775=EDGE_LOOP('',(#283));
#776=EDGE_LOOP('',(#284));
#777=EDGE_LOOP('',(#285));
#778=EDGE_LOOP('',(#286));
#779=EDGE_LOOP('',(#287));
#780=EDGE_LOOP('',(#288));
#781=EDGE_LOOP('',(#289,#290,#291,#292));
#782=EDGE_LOOP('',(#293,#294,#295,#296));
#783=EDGE_LOOP('',(#297,#298,#299,#300));
#784=EDGE_LOOP('',(#301,#302,#303,#304));
#785=EDGE_LOOP('',(#305,#306,#307,#308));
#786=EDGE_LOOP('',(#309,#310,#311,#312));
#787=EDGE_LOOP('',(#313,#314,#315,#316));
#788=EDGE_LOOP('',(#317));
#789=EDGE_LOOP('',(#318));
#790=EDGE_LOOP('',(#319,#320,#321,#322));
#791=EDGE_LOOP('',(#323,#324,#325,#326,#327,#328,#329,#330));
#792=EDGE_LOOP('',(#331));
#793=EDGE_LOOP('',(#332,#333,#334,#335));
#794=EDGE_LOOP('',(#336,#337,#338,#339));
#795=EDGE_LOOP('',(#340,#341,#342,#343));
#796=EDGE_LOOP('',(#344,#345,#346,#347));
#797=EDGE_LOOP('',(#348,#349,#350,#351));
#798=EDGE_LOOP('',(#352,#353,#354,#355));
#799=EDGE_LOOP('',(#356,#357,#358,#359));
#800=EDGE_LOOP('',(#360));
#801=EDGE_LOOP('',(#361));
#802=EDGE_LOOP('',(#362,#363,#364,#365));
#803=EDGE_LOOP('',(#366,#367,#368,#369,#370,#371,#372,#373));
#804=EDGE_LOOP('',(#374));
#805=EDGE_LOOP('',(#375,#376,#377,#378));
#806=EDGE_LOOP('',(#379,#380,#381,#382));
#807=EDGE_LOOP('',(#383,#384,#385,#386));
#808=EDGE_LOOP('',(#387,#388,#389,#390));
#809=EDGE_LOOP('',(#391,#392,#393,#394));
#810=EDGE_LOOP('',(#395,#396,#397,#398));
#811=EDGE_LOOP('',(#399,#400,#401,#402));
#812=EDGE_LOOP('',(#403));
#813=EDGE_LOOP('',(#404));
#814=EDGE_LOOP('',(#405,#406,#407,#408));
#815=EDGE_LOOP('',(#409,#410,#411,#412,#413,#414,#415,#416));
#816=EDGE_LOOP('',(#417));
#817=EDGE_LOOP('',(#418,#419,#420,#421));
#818=EDGE_LOOP('',(#422,#423,#424,#425));
#819=EDGE_LOOP('',(#426,#427,#428,#429));
#820=EDGE_LOOP('',(#430,#431,#432,#433));
#821=EDGE_LOOP('',(#434,#435,#436,#437));
#822=EDGE_LOOP('',(#438,#439,#440,#441));
#823=EDGE_LOOP('',(#442,#443,#444,#445));
#824=EDGE_LOOP('',(#446));
#825=EDGE_LOOP('',(#447));
#826=EDGE_LOOP('',(#448,#449,#450,#451));
#827=EDGE_LOOP('',(#452,#453,#454,#455,#456,#457,#458,#459));
#828=EDGE_LOOP('',(#460));
#829=FACE_BOUND('',#739,.T.);
#830=FACE_BOUND('',#740,.T.);
#831=FACE_BOUND('',#741,.T.);
#832=FACE_BOUND('',#742,.T.);
#833=FACE_BOUND('',#743,.T.);
#834=FACE_BOUND('',#744,.T.);
#835=FACE_BOUND('',#745,.T.);
#836=FACE_BOUND('',#746,.T.);
#837=FACE_BOUND('',#747,.T.);
#838=FACE_BOUND('',#748,.T.);
#839=FACE_BOUND('',#749,.T.);
#840=FACE_BOUND('',#750,.T.);
#841=FACE_BOUND('',#751,.T.);
#842=FACE_BOUND('',#752,.T.);
#843=FACE_BOUND('',#753,.T.);
#844=FACE_BOUND('',#754,.T.);
#845=FACE_BOUND('',#755,.T.);
#846=FACE_BOUND('',#756,.T.);
#847=FACE_BOUND('',#757,.T.);
#848=FACE_BOUND('',#758,.T.);
#849=FACE_BOUND('',#759,.T.);
#850=FACE_BOUND('',#760,.T.);
#851=FACE_BOUND('',#761,.T.);
#852=FACE_BOUND('',#762,.T.);
#853=FACE_BOUND('',#763,.T.);
#854=FACE_BOUND('',#764,.T.);
#855=FACE_BOUND('',#765,.T.);
#856=FACE_BOUND('',#766,.T.);
#857=FACE_BOUND('',#767,.T.);
#858=FACE_BOUND('',#768,.T.);
#859=FACE_BOUND('',#769,.T.);
#860=FACE_BOUND('',#770,.T.);
#861=FACE_BOUND('',#771,.T.);
#862=FACE_BOUND('',#772,.T.);
#863=FACE_BOUND('',#773,.T.);
#864=FACE_BOUND('',#774,.T.);
#865=FACE_BOUND('',#775,.T.);
#866=FACE_BOUND('',#776,.T.);
#867=FACE_BOUND('',#777,.T.);
#868=FACE_BOUND('',#778,.T.);
#869=FACE_BOUND('',#779,.T.);
#870=FACE_BOUND('',#780,.T.);
#871=FACE_BOUND('',#781,.T.);
#872=FACE_BOUND('',#782,.T.);
#873=FACE_BOUND('',#783,.T.);
#874=FACE_BOUND('',#784,.T.);
#875=FACE_BOUND('',#785,.T.);
#876=FACE_BOUND('',#786,.T.);
#877=FACE_BOUND('',#787,.T.);
#878=FACE_BOUND('',#788,.T.);
#879=FACE_BOUND('',#789,.T.);
#880=FACE_BOUND('',#790,.T.);
#881=FACE_BOUND('',#791,.T.);
#882=FACE_BOUND('',#792,.T.);
#883=FACE_BOUND('',#793,.T.);
#884=FACE_BOUND('',#794,.T.);
#885=FACE_BOUND('',#795,.T.);
#886=FACE_BOUND('',#796,.T.);
#887=FACE_BOUND('',#797,.T.);
#888=FACE_BOUND('',#798,.T.);
#889=FACE_BOUND('',#799,.T.);
#890=FACE_BOUND('',#800,.T.);
#891=FACE_BOUND('',#801,.T.);
#892=FACE_BOUND('',#802,.T.);
#893=FACE_BOUND('',#803,.T.);
#894=FACE_BOUND('',#804,.T.);
#895=FACE_BOUND('',#805,.T.);
#896=FACE_BOUND('',#806,.T.);
#897=FACE_BOUND('',#807,.T.);
#898=FACE_BOUND('',#808,.T.);
#899=FACE_BOUND('',#809,.T.);
#900=FACE_BOUND('',#810,.T.);
#901=FACE_BOUND('',#811,.T.);
#902=FACE_BOUND('',#812,.T.);
#903=FACE_BOUND('',#813,.T.);
#904=FACE_BOUND('',#814,.T.);
#905=FACE_BOUND('',#815,.T.);
#906=FACE_BOUND('',#816,.T.);
#907=FACE_BOUND('',#817,.T.);
#908=FACE_BOUND('',#818,.T.);
#909=FACE_BOUND('',#819,.T.);
#910=FACE_BOUND('',#820,.T.);
#911=FACE_BOUND('',#821,.T.);
#912=FACE_BOUND('',#822,.T.);
#913=FACE_BOUND('',#823,.T.);
#914=FACE_BOUND('',#824,.T.);
#915=FACE_BOUND('',#825,.T.);
#916=FACE_BOUND('',#826,.T.);
#917=FACE_BOUND('',#827,.T.);
#918=FACE_BOUND('',#828,.T.);
#919=PLANE('',#1021);
#920=PLANE('',#1024);
#921=PLANE('',#1027);
#922=PLANE('',#1030);
#923=PLANE('',#1048);
#924=PLANE('',#1051);
#925=PLANE('',#1052);
#926=PLANE('',#1053);
#927=PLANE('',#1056);
#928=PLANE('',#1057);
#929=PLANE('',#1074);
#930=PLANE('',#1077);
#931=PLANE('',#1080);
#932=PLANE('',#1083);
#933=PLANE('',#1088);
#934=PLANE('',#1089);
#935=PLANE('',#1092);
#936=PLANE('',#1095);
#937=PLANE('',#1098);
#938=PLANE('',#1103);
#939=PLANE('',#1104);
#940=PLANE('',#1107);
#941=PLANE('',#1110);
#942=PLANE('',#1113);
#943=PLANE('',#1118);
#944=PLANE('',#1119);
#945=PLANE('',#1122);
#946=PLANE('',#1125);
#947=PLANE('',#1128);
#948=PLANE('',#1133);
#949=ADVANCED_FACE('',(#829,#830),#919,.F.);
#950=ADVANCED_FACE('',(#831,#832),#920,.F.);
#951=ADVANCED_FACE('',(#833,#834),#921,.F.);
#952=ADVANCED_FACE('',(#835,#836,#837,#838,#839,#840),#922,.F.);
#953=ADVANCED_FACE('',(#841,#842),#923,.F.);
#954=ADVANCED_FACE('',(#843),#924,.T.);
#955=ADVANCED_FACE('',(#844),#925,.F.);
#956=ADVANCED_FACE('',(#845),#926,.F.);
#957=ADVANCED_FACE('',(#846,#847),#24,.F.);
#958=ADVANCED_FACE('',(#848),#927,.T.);
#959=ADVANCED_FACE('',(#849,#850,#851,#852,#853,#854),#928,.T.);
#960=ADVANCED_FACE('',(#855,#856),#25,.F.);
#961=ADVANCED_FACE('',(#857,#858),#20,.F.);
#962=ADVANCED_FACE('',(#859,#860),#26,.F.);
#963=ADVANCED_FACE('',(#861,#862),#21,.F.);
#964=ADVANCED_FACE('',(#863,#864),#27,.F.);
#965=ADVANCED_FACE('',(#865,#866),#22,.F.);
#966=ADVANCED_FACE('',(#867,#868),#28,.F.);
#967=ADVANCED_FACE('',(#869,#870),#23,.F.);
#968=ADVANCED_FACE('',(#871),#929,.T.);
#969=ADVANCED_FACE('',(#872),#29,.T.);
#970=ADVANCED_FACE('',(#873),#930,.F.);
#971=ADVANCED_FACE('',(#874),#30,.T.);
#972=ADVANCED_FACE('',(#875),#931,.F.);
#973=ADVANCED_FACE('',(#876),#31,.T.);
#974=ADVANCED_FACE('',(#877),#932,.T.);
#975=ADVANCED_FACE('',(#878,#879),#32,.F.);
#976=ADVANCED_FACE('',(#880),#33,.T.);
#977=ADVANCED_FACE('',(#881,#882),#933,.T.);
#978=ADVANCED_FACE('',(#883),#934,.T.);
#979=ADVANCED_FACE('',(#884),#34,.T.);
#980=ADVANCED_FACE('',(#885),#935,.F.);
#981=ADVANCED_FACE('',(#886),#35,.T.);
#982=ADVANCED_FACE('',(#887),#936,.F.);
#983=ADVANCED_FACE('',(#888),#36,.T.);
#984=ADVANCED_FACE('',(#889),#937,.T.);
#985=ADVANCED_FACE('',(#890,#891),#37,.F.);
#986=ADVANCED_FACE('',(#892),#38,.T.);
#987=ADVANCED_FACE('',(#893,#894),#938,.T.);
#988=ADVANCED_FACE('',(#895),#939,.F.);
#989=ADVANCED_FACE('',(#896),#39,.T.);
#990=ADVANCED_FACE('',(#897),#940,.F.);
#991=ADVANCED_FACE('',(#898),#40,.T.);
#992=ADVANCED_FACE('',(#899),#941,.T.);
#993=ADVANCED_FACE('',(#900),#41,.T.);
#994=ADVANCED_FACE('',(#901),#942,.T.);
#995=ADVANCED_FACE('',(#902,#903),#42,.F.);
#996=ADVANCED_FACE('',(#904),#43,.T.);
#997=ADVANCED_FACE('',(#905,#906),#943,.T.);
#998=ADVANCED_FACE('',(#907),#944,.F.);
#999=ADVANCED_FACE('',(#908),#44,.T.);
#1000=ADVANCED_FACE('',(#909),#945,.F.);
#1001=ADVANCED_FACE('',(#910),#45,.T.);
#1002=ADVANCED_FACE('',(#911),#946,.T.);
#1003=ADVANCED_FACE('',(#912),#46,.T.);
#1004=ADVANCED_FACE('',(#913),#947,.T.);
#1005=ADVANCED_FACE('',(#914,#915),#47,.F.);
#1006=ADVANCED_FACE('',(#916),#48,.T.);
#1007=ADVANCED_FACE('',(#917,#918),#948,.T.);
#1008=CLOSED_SHELL('',(#949,#950,#951,#952,#953,#954,#955,#956,#957,#958,
#959,#960,#961,#962,#963,#964,#965,#966,#967,#968,#969,#970,#971,#972,#973,
#974,#975,#976,#977,#978,#979,#980,#981,#982,#983,#984,#985,#986,#987,#988,
#989,#990,#991,#992,#993,#994,#995,#996,#997,#998,#999,#1000,#1001,#1002,
#1003,#1004,#1005,#1006,#1007));
#1009=STYLED_ITEM('',(#1010),#1017);
#1010=PRESENTATION_STYLE_ASSIGNMENT((#1011));
#1011=SURFACE_STYLE_USAGE(.BOTH.,#1012);
#1012=SURFACE_SIDE_STYLE('',(#1013));
#1013=SURFACE_STYLE_FILL_AREA(#1014);
#1014=FILL_AREA_STYLE('',(#1015));
#1015=FILL_AREA_STYLE_COLOUR('',#1016);
#1016=COLOUR_RGB('',0.129411764705882,0.113725490196078,0.113725490196078);
#1017=MANIFOLD_SOLID_BREP('Ano',#1008);
#1018=SHAPE_DEFINITION_REPRESENTATION(#1728,#1019);
#1019=SHAPE_REPRESENTATION('Ano',(#1020),#1723);
#1020=AXIS2_PLACEMENT_3D('',#1438,#1134,#1135);
#1021=AXIS2_PLACEMENT_3D('',#1439,#1136,#1137);
#1022=AXIS2_PLACEMENT_3D('',#1440,#1138,#1139);
#1023=AXIS2_PLACEMENT_3D('',#1442,#1140,#1141);
#1024=AXIS2_PLACEMENT_3D('',#1444,#1142,#1143);
#1025=AXIS2_PLACEMENT_3D('',#1445,#1144,#1145);
#1026=AXIS2_PLACEMENT_3D('',#1447,#1146,#1147);
#1027=AXIS2_PLACEMENT_3D('',#1449,#1148,#1149);
#1028=AXIS2_PLACEMENT_3D('',#1450,#1150,#1151);
#1029=AXIS2_PLACEMENT_3D('',#1452,#1152,#1153);
#1030=AXIS2_PLACEMENT_3D('',#1454,#1154,#1155);
#1031=AXIS2_PLACEMENT_3D('',#1458,#1157,#1158);
#1032=AXIS2_PLACEMENT_3D('',#1462,#1160,#1161);
#1033=AXIS2_PLACEMENT_3D('',#1466,#1163,#1164);
#1034=AXIS2_PLACEMENT_3D('',#1470,#1166,#1167);
#1035=AXIS2_PLACEMENT_3D('',#1474,#1169,#1170);
#1036=AXIS2_PLACEMENT_3D('',#1478,#1172,#1173);
#1037=AXIS2_PLACEMENT_3D('',#1482,#1175,#1176);
#1038=AXIS2_PLACEMENT_3D('',#1486,#1178,#1179);
#1039=AXIS2_PLACEMENT_3D('',#1487,#1180,#1181);
#1040=AXIS2_PLACEMENT_3D('',#1492,#1183,#1184);
#1041=AXIS2_PLACEMENT_3D('',#1496,#1186,#1187);
#1042=AXIS2_PLACEMENT_3D('',#1500,#1189,#1190);
#1043=AXIS2_PLACEMENT_3D('',#1503,#1192,#1193);
#1044=AXIS2_PLACEMENT_3D('',#1513,#1198,#1199);
#1045=AXIS2_PLACEMENT_3D('',#1518,#1201,#1202);
#1046=AXIS2_PLACEMENT_3D('',#1522,#1204,#1205);
#1047=AXIS2_PLACEMENT_3D('',#1526,#1207,#1208);
#1048=AXIS2_PLACEMENT_3D('',#1529,#1210,#1211);
#1049=AXIS2_PLACEMENT_3D('',#1530,#1212,#1213);
#1050=AXIS2_PLACEMENT_3D('',#1532,#1214,#1215);
#1051=AXIS2_PLACEMENT_3D('',#1534,#1216,#1217);
#1052=AXIS2_PLACEMENT_3D('',#1540,#1221,#1222);
#1053=AXIS2_PLACEMENT_3D('',#1544,#1225,#1226);
#1054=AXIS2_PLACEMENT_3D('',#1548,#1229,#1230);
#1055=AXIS2_PLACEMENT_3D('',#1549,#1231,#1232);
#1056=AXIS2_PLACEMENT_3D('',#1551,#1233,#1234);
#1057=AXIS2_PLACEMENT_3D('',#1553,#1236,#1237);
#1058=AXIS2_PLACEMENT_3D('',#1554,#1238,#1239);
#1059=AXIS2_PLACEMENT_3D('',#1556,#1240,#1241);
#1060=AXIS2_PLACEMENT_3D('',#1558,#1242,#1243);
#1061=AXIS2_PLACEMENT_3D('',#1560,#1244,#1245);
#1062=AXIS2_PLACEMENT_3D('',#1562,#1246,#1247);
#1063=AXIS2_PLACEMENT_3D('',#1563,#1248,#1249);
#1064=AXIS2_PLACEMENT_3D('',#1565,#1250,#1251);
#1065=AXIS2_PLACEMENT_3D('',#1566,#1252,#1253);
#1066=AXIS2_PLACEMENT_3D('',#1567,#1254,#1255);
#1067=AXIS2_PLACEMENT_3D('',#1569,#1256,#1257);
#1068=AXIS2_PLACEMENT_3D('',#1570,#1258,#1259);
#1069=AXIS2_PLACEMENT_3D('',#1571,#1260,#1261);
#1070=AXIS2_PLACEMENT_3D('',#1573,#1262,#1263);
#1071=AXIS2_PLACEMENT_3D('',#1574,#1264,#1265);
#1072=AXIS2_PLACEMENT_3D('',#1575,#1266,#1267);
#1073=AXIS2_PLACEMENT_3D('',#1577,#1268,#1269);
#1074=AXIS2_PLACEMENT_3D('',#1578,#1270,#1271);
#1075=AXIS2_PLACEMENT_3D('',#1584,#1275,#1276);
#1076=AXIS2_PLACEMENT_3D('',#1585,#1277,#1278);
#1077=AXIS2_PLACEMENT_3D('',#1588,#1280,#1281);
#1078=AXIS2_PLACEMENT_3D('',#1592,#1284,#1285);
#1079=AXIS2_PLACEMENT_3D('',#1593,#1286,#1287);
#1080=AXIS2_PLACEMENT_3D('',#1596,#1289,#1290);
#1081=AXIS2_PLACEMENT_3D('',#1600,#1293,#1294);
#1082=AXIS2_PLACEMENT_3D('',#1601,#1295,#1296);
#1083=AXIS2_PLACEMENT_3D('',#1604,#1298,#1299);
#1084=AXIS2_PLACEMENT_3D('',#1608,#1302,#1303);
#1085=AXIS2_PLACEMENT_3D('',#1609,#1304,#1305);
#1086=AXIS2_PLACEMENT_3D('',#1611,#1306,#1307);
#1087=AXIS2_PLACEMENT_3D('',#1612,#1308,#1309);
#1088=AXIS2_PLACEMENT_3D('',#1613,#1310,#1311);
#1089=AXIS2_PLACEMENT_3D('',#1614,#1312,#1313);
#1090=AXIS2_PLACEMENT_3D('',#1620,#1317,#1318);
#1091=AXIS2_PLACEMENT_3D('',#1621,#1319,#1320);
#1092=AXIS2_PLACEMENT_3D('',#1624,#1322,#1323);
#1093=AXIS2_PLACEMENT_3D('',#1628,#1326,#1327);
#1094=AXIS2_PLACEMENT_3D('',#1629,#1328,#1329);
#1095=AXIS2_PLACEMENT_3D('',#1632,#1331,#1332);
#1096=AXIS2_PLACEMENT_3D('',#1636,#1335,#1336);
#1097=AXIS2_PLACEMENT_3D('',#1637,#1337,#1338);
#1098=AXIS2_PLACEMENT_3D('',#1640,#1340,#1341);
#1099=AXIS2_PLACEMENT_3D('',#1644,#1344,#1345);
#1100=AXIS2_PLACEMENT_3D('',#1645,#1346,#1347);
#1101=AXIS2_PLACEMENT_3D('',#1647,#1348,#1349);
#1102=AXIS2_PLACEMENT_3D('',#1648,#1350,#1351);
#1103=AXIS2_PLACEMENT_3D('',#1649,#1352,#1353);
#1104=AXIS2_PLACEMENT_3D('',#1650,#1354,#1355);
#1105=AXIS2_PLACEMENT_3D('',#1656,#1359,#1360);
#1106=AXIS2_PLACEMENT_3D('',#1657,#1361,#1362);
#1107=AXIS2_PLACEMENT_3D('',#1660,#1364,#1365);
#1108=AXIS2_PLACEMENT_3D('',#1664,#1368,#1369);
#1109=AXIS2_PLACEMENT_3D('',#1665,#1370,#1371);
#1110=AXIS2_PLACEMENT_3D('',#1668,#1373,#1374);
#1111=AXIS2_PLACEMENT_3D('',#1672,#1377,#1378);
#1112=AXIS2_PLACEMENT_3D('',#1673,#1379,#1380);
#1113=AXIS2_PLACEMENT_3D('',#1676,#1382,#1383);
#1114=AXIS2_PLACEMENT_3D('',#1680,#1386,#1387);
#1115=AXIS2_PLACEMENT_3D('',#1681,#1388,#1389);
#1116=AXIS2_PLACEMENT_3D('',#1683,#1390,#1391);
#1117=AXIS2_PLACEMENT_3D('',#1684,#1392,#1393);
#1118=AXIS2_PLACEMENT_3D('',#1685,#1394,#1395);
#1119=AXIS2_PLACEMENT_3D('',#1686,#1396,#1397);
#1120=AXIS2_PLACEMENT_3D('',#1692,#1401,#1402);
#1121=AXIS2_PLACEMENT_3D('',#1693,#1403,#1404);
#1122=AXIS2_PLACEMENT_3D('',#1696,#1406,#1407);
#1123=AXIS2_PLACEMENT_3D('',#1700,#1410,#1411);
#1124=AXIS2_PLACEMENT_3D('',#1701,#1412,#1413);
#1125=AXIS2_PLACEMENT_3D('',#1704,#1415,#1416);
#1126=AXIS2_PLACEMENT_3D('',#1708,#1419,#1420);
#1127=AXIS2_PLACEMENT_3D('',#1709,#1421,#1422);
#1128=AXIS2_PLACEMENT_3D('',#1712,#1424,#1425);
#1129=AXIS2_PLACEMENT_3D('',#1716,#1428,#1429);
#1130=AXIS2_PLACEMENT_3D('',#1717,#1430,#1431);
#1131=AXIS2_PLACEMENT_3D('',#1719,#1432,#1433);
#1132=AXIS2_PLACEMENT_3D('',#1720,#1434,#1435);
#1133=AXIS2_PLACEMENT_3D('',#1721,#1436,#1437);
#1134=DIRECTION('',(0.,0.,1.));
#1135=DIRECTION('',(1.,0.,0.));
#1136=DIRECTION('',(0.,0.,1.));
#1137=DIRECTION('',(1.,0.,0.));
#1138=DIRECTION('',(0.,0.,1.));
#1139=DIRECTION('',(1.,0.,0.));
#1140=DIRECTION('',(0.,0.,-1.));
#1141=DIRECTION('',(-1.,0.,0.));
#1142=DIRECTION('',(0.,0.,1.));
#1143=DIRECTION('',(1.,0.,0.));
#1144=DIRECTION('',(0.,0.,1.));
#1145=DIRECTION('',(1.,0.,0.));
#1146=DIRECTION('',(0.,0.,-1.));
#1147=DIRECTION('',(-1.,0.,0.));
#1148=DIRECTION('',(0.,0.,1.));
#1149=DIRECTION('',(1.,0.,0.));
#1150=DIRECTION('',(0.,0.,1.));
#1151=DIRECTION('',(1.,0.,0.));
#1152=DIRECTION('',(0.,0.,-1.));
#1153=DIRECTION('',(-1.,0.,0.));
#1154=DIRECTION('',(0.,0.,1.));
#1155=DIRECTION('',(1.,0.,0.));
#1156=DIRECTION('',(-1.,0.,0.));
#1157=DIRECTION('',(0.,0.,-1.));
#1158=DIRECTION('',(-1.,0.,0.));
#1159=DIRECTION('',(0.,1.,0.));
#1160=DIRECTION('',(0.,0.,-1.));
#1161=DIRECTION('',(-1.,0.,0.));
#1162=DIRECTION('',(-1.,0.,0.));
#1163=DIRECTION('',(0.,0.,-1.));
#1164=DIRECTION('',(-1.,0.,0.));
#1165=DIRECTION('',(0.,1.,0.));
#1166=DIRECTION('',(0.,0.,-1.));
#1167=DIRECTION('',(-1.,0.,0.));
#1168=DIRECTION('',(-1.,0.,0.));
#1169=DIRECTION('',(0.,0.,-1.));
#1170=DIRECTION('',(-1.,0.,0.));
#1171=DIRECTION('',(0.,1.,0.));
#1172=DIRECTION('',(0.,0.,-1.));
#1173=DIRECTION('',(-1.,0.,0.));
#1174=DIRECTION('',(-1.,0.,0.));
#1175=DIRECTION('',(0.,0.,-1.));
#1176=DIRECTION('',(-1.,0.,0.));
#1177=DIRECTION('',(0.,1.,0.));
#1178=DIRECTION('',(0.,0.,-1.));
#1179=DIRECTION('',(-1.,0.,0.));
#1180=DIRECTION('',(0.,0.,-1.));
#1181=DIRECTION('',(-1.,0.,0.));
#1182=DIRECTION('',(0.,1.,0.));
#1183=DIRECTION('',(0.,0.,-1.));
#1184=DIRECTION('',(-1.,0.,0.));
#1185=DIRECTION('',(-1.,0.,0.));
#1186=DIRECTION('',(0.,0.,-1.));
#1187=DIRECTION('',(-1.,0.,0.));
#1188=DIRECTION('',(0.,1.,0.));
#1189=DIRECTION('',(0.,0.,-1.));
#1190=DIRECTION('',(-1.,0.,0.));
#1191=DIRECTION('',(-1.,0.,0.));
#1192=DIRECTION('',(0.,0.,1.));
#1193=DIRECTION('',(1.,0.,0.));
#1194=DIRECTION('',(2.70346515736645E-16,-1.,0.));
#1195=DIRECTION('',(-1.,-1.20600909064016E-16,0.));
#1196=DIRECTION('',(2.70346515736645E-16,-1.,0.));
#1197=DIRECTION('',(-1.,0.,0.));
#1198=DIRECTION('',(0.,0.,-1.));
#1199=DIRECTION('',(-1.,0.,0.));
#1200=DIRECTION('',(0.,1.,0.));
#1201=DIRECTION('',(0.,0.,-1.));
#1202=DIRECTION('',(-1.,0.,0.));
#1203=DIRECTION('',(-1.,0.,0.));
#1204=DIRECTION('',(0.,0.,-1.));
#1205=DIRECTION('',(-1.,0.,0.));
#1206=DIRECTION('',(0.,1.,0.));
#1207=DIRECTION('',(0.,0.,-1.));
#1208=DIRECTION('',(-1.,0.,0.));
#1209=DIRECTION('',(-1.,0.,0.));
#1210=DIRECTION('',(0.,0.,1.));
#1211=DIRECTION('',(1.,0.,0.));
#1212=DIRECTION('',(0.,0.,1.));
#1213=DIRECTION('',(1.,0.,0.));
#1214=DIRECTION('',(0.,0.,-1.));
#1215=DIRECTION('',(-1.,0.,0.));
#1216=DIRECTION('',(-1.,-2.70346515736645E-16,0.));
#1217=DIRECTION('',(2.70346515736645E-16,-1.,0.));
#1218=DIRECTION('',(2.70346515736645E-16,-1.,0.));
#1219=DIRECTION('',(0.,0.,1.));
#1220=DIRECTION('',(0.,0.,1.));
#1221=DIRECTION('',(0.,1.,0.));
#1222=DIRECTION('',(0.,0.,1.));
#1223=DIRECTION('',(-1.,0.,0.));
#1224=DIRECTION('',(0.,0.,1.));
#1225=DIRECTION('',(-1.,-2.70346515736645E-16,0.));
#1226=DIRECTION('',(2.70346515736645E-16,-1.,0.));
#1227=DIRECTION('',(2.70346515736645E-16,-1.,0.));
#1228=DIRECTION('',(0.,0.,1.));
#1229=DIRECTION('',(0.,0.,1.));
#1230=DIRECTION('',(1.,0.,0.));
#1231=DIRECTION('',(0.,0.,1.));
#1232=DIRECTION('',(1.,0.,0.));
#1233=DIRECTION('',(-1.20600909064016E-16,1.,0.));
#1234=DIRECTION('',(-1.,-1.20600909064016E-16,0.));
#1235=DIRECTION('',(-1.,-1.20600909064016E-16,0.));
#1236=DIRECTION('',(0.,0.,1.));
#1237=DIRECTION('',(1.,0.,0.));
#1238=DIRECTION('',(0.,0.,-1.));
#1239=DIRECTION('',(-1.,0.,0.));
#1240=DIRECTION('',(0.,0.,-1.));
#1241=DIRECTION('',(-1.,0.,0.));
#1242=DIRECTION('',(0.,0.,-1.));
#1243=DIRECTION('',(-1.,0.,0.));
#1244=DIRECTION('',(0.,0.,-1.));
#1245=DIRECTION('',(-1.,0.,0.));
#1246=DIRECTION('',(0.,0.,-1.));
#1247=DIRECTION('',(-1.,0.,0.));
#1248=DIRECTION('',(0.,0.,-1.));
#1249=DIRECTION('',(-1.,0.,0.));
#1250=DIRECTION('',(0.,0.,1.));
#1251=DIRECTION('',(1.,0.,0.));
#1252=DIRECTION('',(0.,0.,-1.));
#1253=DIRECTION('',(-1.,0.,0.));
#1254=DIRECTION('',(0.,0.,-1.));
#1255=DIRECTION('',(-1.,0.,0.));
#1256=DIRECTION('',(0.,0.,1.));
#1257=DIRECTION('',(1.,0.,0.));
#1258=DIRECTION('',(0.,0.,-1.));
#1259=DIRECTION('',(-1.,0.,0.));
#1260=DIRECTION('',(0.,0.,-1.));
#1261=DIRECTION('',(-1.,0.,0.));
#1262=DIRECTION('',(0.,0.,1.));
#1263=DIRECTION('',(1.,0.,0.));
#1264=DIRECTION('',(0.,0.,-1.));
#1265=DIRECTION('',(-1.,0.,0.));
#1266=DIRECTION('',(0.,0.,-1.));
#1267=DIRECTION('',(-1.,0.,0.));
#1268=DIRECTION('',(0.,0.,1.));
#1269=DIRECTION('',(1.,0.,0.));
#1270=DIRECTION('',(1.,0.,0.));
#1271=DIRECTION('',(0.,0.,-1.));
#1272=DIRECTION('',(0.,0.,1.));
#1273=DIRECTION('',(0.,1.,0.));
#1274=DIRECTION('',(0.,0.,1.));
#1275=DIRECTION('',(0.,0.,1.));
#1276=DIRECTION('',(1.,0.,0.));
#1277=DIRECTION('',(0.,0.,-1.));
#1278=DIRECTION('',(-1.,0.,0.));
#1279=DIRECTION('',(0.,0.,1.));
#1280=DIRECTION('',(0.,1.,0.));
#1281=DIRECTION('',(0.,0.,1.));
#1282=DIRECTION('',(-1.,0.,0.));
#1283=DIRECTION('',(0.,0.,1.));
#1284=DIRECTION('',(0.,0.,1.));
#1285=DIRECTION('',(1.,0.,0.));
#1286=DIRECTION('',(0.,0.,-1.));
#1287=DIRECTION('',(-1.,0.,0.));
#1288=DIRECTION('',(0.,0.,1.));
#1289=DIRECTION('',(1.,0.,0.));
#1290=DIRECTION('',(0.,0.,-1.));
#1291=DIRECTION('',(0.,1.,0.));
#1292=DIRECTION('',(0.,0.,1.));
#1293=DIRECTION('',(0.,0.,1.));
#1294=DIRECTION('',(1.,0.,0.));
#1295=DIRECTION('',(0.,0.,-1.));
#1296=DIRECTION('',(-1.,0.,0.));
#1297=DIRECTION('',(0.,0.,1.));
#1298=DIRECTION('',(0.,1.,0.));
#1299=DIRECTION('',(0.,0.,1.));
#1300=DIRECTION('',(0.,0.,1.));
#1301=DIRECTION('',(-1.,0.,0.));
#1302=DIRECTION('',(0.,0.,1.));
#1303=DIRECTION('',(1.,0.,0.));
#1304=DIRECTION('',(0.,0.,-1.));
#1305=DIRECTION('',(-1.,0.,0.));
#1306=DIRECTION('',(0.,0.,1.));
#1307=DIRECTION('',(1.,0.,0.));
#1308=DIRECTION('',(0.,0.,-1.));
#1309=DIRECTION('',(-1.,0.,0.));
#1310=DIRECTION('',(0.,0.,-1.));
#1311=DIRECTION('',(-1.,0.,0.));
#1312=DIRECTION('',(1.,0.,0.));
#1313=DIRECTION('',(0.,0.,-1.));
#1314=DIRECTION('',(0.,0.,1.));
#1315=DIRECTION('',(0.,1.,0.));
#1316=DIRECTION('',(0.,0.,1.));
#1317=DIRECTION('',(0.,0.,1.));
#1318=DIRECTION('',(1.,0.,0.));
#1319=DIRECTION('',(0.,0.,-1.));
#1320=DIRECTION('',(-1.,0.,0.));
#1321=DIRECTION('',(0.,0.,1.));
#1322=DIRECTION('',(0.,1.,0.));
#1323=DIRECTION('',(0.,0.,1.));
#1324=DIRECTION('',(-1.,0.,0.));
#1325=DIRECTION('',(0.,0.,1.));
#1326=DIRECTION('',(0.,0.,1.));
#1327=DIRECTION('',(1.,0.,0.));
#1328=DIRECTION('',(0.,0.,-1.));
#1329=DIRECTION('',(-1.,0.,0.));
#1330=DIRECTION('',(0.,0.,1.));
#1331=DIRECTION('',(1.,0.,0.));
#1332=DIRECTION('',(0.,0.,-1.));
#1333=DIRECTION('',(0.,1.,0.));
#1334=DIRECTION('',(0.,0.,1.));
#1335=DIRECTION('',(0.,0.,1.));
#1336=DIRECTION('',(1.,0.,0.));
#1337=DIRECTION('',(0.,0.,-1.));
#1338=DIRECTION('',(-1.,0.,0.));
#1339=DIRECTION('',(0.,0.,1.));
#1340=DIRECTION('',(0.,1.,0.));
#1341=DIRECTION('',(0.,0.,1.));
#1342=DIRECTION('',(0.,0.,1.));
#1343=DIRECTION('',(-1.,0.,0.));
#1344=DIRECTION('',(0.,0.,1.));
#1345=DIRECTION('',(1.,0.,0.));
#1346=DIRECTION('',(0.,0.,-1.));
#1347=DIRECTION('',(-1.,0.,0.));
#1348=DIRECTION('',(0.,0.,1.));
#1349=DIRECTION('',(1.,0.,0.));
#1350=DIRECTION('',(0.,0.,-1.));
#1351=DIRECTION('',(-1.,0.,0.));
#1352=DIRECTION('',(0.,0.,-1.));
#1353=DIRECTION('',(-1.,0.,0.));
#1354=DIRECTION('',(0.,1.,0.));
#1355=DIRECTION('',(0.,0.,1.));
#1356=DIRECTION('',(-1.,0.,0.));
#1357=DIRECTION('',(0.,0.,1.));
#1358=DIRECTION('',(0.,0.,1.));
#1359=DIRECTION('',(0.,0.,1.));
#1360=DIRECTION('',(1.,0.,0.));
#1361=DIRECTION('',(0.,0.,-1.));
#1362=DIRECTION('',(-1.,0.,0.));
#1363=DIRECTION('',(0.,0.,1.));
#1364=DIRECTION('',(1.,0.,0.));
#1365=DIRECTION('',(0.,0.,-1.));
#1366=DIRECTION('',(0.,1.,0.));
#1367=DIRECTION('',(0.,0.,1.));
#1368=DIRECTION('',(0.,0.,1.));
#1369=DIRECTION('',(1.,0.,0.));
#1370=DIRECTION('',(0.,0.,-1.));
#1371=DIRECTION('',(-1.,0.,0.));
#1372=DIRECTION('',(0.,0.,1.));
#1373=DIRECTION('',(0.,1.,0.));
#1374=DIRECTION('',(0.,0.,1.));
#1375=DIRECTION('',(0.,0.,1.));
#1376=DIRECTION('',(-1.,0.,0.));
#1377=DIRECTION('',(0.,0.,1.));
#1378=DIRECTION('',(1.,0.,0.));
#1379=DIRECTION('',(0.,0.,-1.));
#1380=DIRECTION('',(-1.,0.,0.));
#1381=DIRECTION('',(0.,0.,1.));
#1382=DIRECTION('',(1.,0.,0.));
#1383=DIRECTION('',(0.,0.,-1.));
#1384=DIRECTION('',(0.,0.,1.));
#1385=DIRECTION('',(0.,1.,0.));
#1386=DIRECTION('',(0.,0.,1.));
#1387=DIRECTION('',(1.,0.,0.));
#1388=DIRECTION('',(0.,0.,-1.));
#1389=DIRECTION('',(-1.,0.,0.));
#1390=DIRECTION('',(0.,0.,1.));
#1391=DIRECTION('',(1.,0.,0.));
#1392=DIRECTION('',(0.,0.,-1.));
#1393=DIRECTION('',(-1.,0.,0.));
#1394=DIRECTION('',(0.,0.,-1.));
#1395=DIRECTION('',(-1.,0.,0.));
#1396=DIRECTION('',(0.,1.,0.));
#1397=DIRECTION('',(0.,0.,1.));
#1398=DIRECTION('',(-1.,0.,0.));
#1399=DIRECTION('',(0.,0.,1.));
#1400=DIRECTION('',(0.,0.,1.));
#1401=DIRECTION('',(0.,0.,1.));
#1402=DIRECTION('',(1.,0.,0.));
#1403=DIRECTION('',(0.,0.,-1.));
#1404=DIRECTION('',(-1.,0.,0.));
#1405=DIRECTION('',(0.,0.,1.));
#1406=DIRECTION('',(1.,0.,0.));
#1407=DIRECTION('',(0.,0.,-1.));
#1408=DIRECTION('',(0.,1.,0.));
#1409=DIRECTION('',(0.,0.,1.));
#1410=DIRECTION('',(0.,0.,1.));
#1411=DIRECTION('',(1.,0.,0.));
#1412=DIRECTION('',(0.,0.,-1.));
#1413=DIRECTION('',(-1.,0.,0.));
#1414=DIRECTION('',(0.,0.,1.));
#1415=DIRECTION('',(0.,1.,0.));
#1416=DIRECTION('',(0.,0.,1.));
#1417=DIRECTION('',(0.,0.,1.));
#1418=DIRECTION('',(-1.,0.,0.));
#1419=DIRECTION('',(0.,0.,1.));
#1420=DIRECTION('',(1.,0.,0.));
#1421=DIRECTION('',(0.,0.,-1.));
#1422=DIRECTION('',(-1.,0.,0.));
#1423=DIRECTION('',(0.,0.,1.));
#1424=DIRECTION('',(1.,0.,0.));
#1425=DIRECTION('',(0.,0.,-1.));
#1426=DIRECTION('',(0.,0.,1.));
#1427=DIRECTION('',(0.,1.,0.));
#1428=DIRECTION('',(0.,0.,1.));
#1429=DIRECTION('',(1.,0.,0.));
#1430=DIRECTION('',(0.,0.,-1.));
#1431=DIRECTION('',(-1.,0.,0.));
#1432=DIRECTION('',(0.,0.,1.));
#1433=DIRECTION('',(1.,0.,0.));
#1434=DIRECTION('',(0.,0.,-1.));
#1435=DIRECTION('',(-1.,0.,0.));
#1436=DIRECTION('',(0.,0.,-1.));
#1437=DIRECTION('',(-1.,0.,0.));
#1438=CARTESIAN_POINT('',(0.,0.,0.));
#1439=CARTESIAN_POINT('',(-6.93889390390723E-18,0.,0.0135));
#1440=CARTESIAN_POINT('',(-0.01524,-0.00444,0.0135));
#1441=CARTESIAN_POINT('',(-0.01414,-0.00444,0.0135));
#1442=CARTESIAN_POINT('',(-0.01524,-0.00444,0.0135));
#1443=CARTESIAN_POINT('',(-0.01649,-0.00444,0.0135));
#1444=CARTESIAN_POINT('',(-6.93889390390723E-18,0.,0.0135));
#1445=CARTESIAN_POINT('',(0.01524,-0.03492,0.0135));
#1446=CARTESIAN_POINT('',(0.01634,-0.03492,0.0135));
#1447=CARTESIAN_POINT('',(0.01524,-0.03492,0.0135));
#1448=CARTESIAN_POINT('',(0.01399,-0.03492,0.0135));
#1449=CARTESIAN_POINT('',(-6.93889390390723E-18,0.,0.0135));
#1450=CARTESIAN_POINT('',(-0.01524,-0.03492,0.0135));
#1451=CARTESIAN_POINT('',(-0.01414,-0.03492,0.0135));
#1452=CARTESIAN_POINT('',(-0.01524,-0.03492,0.0135));
#1453=CARTESIAN_POINT('',(-0.01649,-0.03492,0.0135));
#1454=CARTESIAN_POINT('',(-6.93889390390723E-18,0.,0.0135));
#1455=CARTESIAN_POINT('',(-0.01524,-0.00619,0.0135));
#1456=CARTESIAN_POINT('',(-0.01399,-0.00619,0.0135));
#1457=CARTESIAN_POINT('',(-0.01649,-0.00619,0.0135));
#1458=CARTESIAN_POINT('',(-0.01399,-0.00569,0.0135));
#1459=CARTESIAN_POINT('',(-0.01349,-0.00569,0.0135));
#1460=CARTESIAN_POINT('',(-0.01349,-0.00444,0.0135));
#1461=CARTESIAN_POINT('',(-0.01349,-0.00319,0.0135));
#1462=CARTESIAN_POINT('',(-0.01399,-0.00319,0.0135));
#1463=CARTESIAN_POINT('',(-0.01399,-0.00269,0.0135));
#1464=CARTESIAN_POINT('',(-0.01524,-0.00269,0.0135));
#1465=CARTESIAN_POINT('',(-0.01649,-0.00269,0.0135));
#1466=CARTESIAN_POINT('',(-0.01649,-0.00319,0.0135));
#1467=CARTESIAN_POINT('',(-0.01699,-0.00319,0.0135));
#1468=CARTESIAN_POINT('',(-0.01699,-0.00444,0.0135));
#1469=CARTESIAN_POINT('',(-0.01699,-0.00569,0.0135));
#1470=CARTESIAN_POINT('',(-0.01649,-0.00569,0.0135));
#1471=CARTESIAN_POINT('',(0.01524,-0.03667,0.0135));
#1472=CARTESIAN_POINT('',(0.01649,-0.03667,0.0135));
#1473=CARTESIAN_POINT('',(0.01399,-0.03667,0.0135));
#1474=CARTESIAN_POINT('',(0.01649,-0.03617,0.0135));
#1475=CARTESIAN_POINT('',(0.01699,-0.03617,0.0135));
#1476=CARTESIAN_POINT('',(0.01699,-0.03492,0.0135));
#1477=CARTESIAN_POINT('',(0.01699,-0.03367,0.0135));
#1478=CARTESIAN_POINT('',(0.01649,-0.03367,0.0135));
#1479=CARTESIAN_POINT('',(0.01649,-0.03317,0.0135));
#1480=CARTESIAN_POINT('',(0.01524,-0.03317,0.0135));
#1481=CARTESIAN_POINT('',(0.01399,-0.03317,0.0135));
#1482=CARTESIAN_POINT('',(0.01399,-0.03367,0.0135));
#1483=CARTESIAN_POINT('',(0.01349,-0.03367,0.0135));
#1484=CARTESIAN_POINT('',(0.01349,-0.03492,0.0135));
#1485=CARTESIAN_POINT('',(0.01349,-0.03617,0.0135));
#1486=CARTESIAN_POINT('',(0.01399,-0.03617,0.0135));
#1487=CARTESIAN_POINT('',(0.01649,-0.00569,0.0135));
#1488=CARTESIAN_POINT('',(0.01699,-0.00569,0.0135));
#1489=CARTESIAN_POINT('',(0.01649,-0.00619,0.0135));
#1490=CARTESIAN_POINT('',(0.01699,-0.00444,0.0135));
#1491=CARTESIAN_POINT('',(0.01699,-0.00319,0.0135));
#1492=CARTESIAN_POINT('',(0.01649,-0.00319,0.0135));
#1493=CARTESIAN_POINT('',(0.01649,-0.00269,0.0135));
#1494=CARTESIAN_POINT('',(0.01524,-0.00269,0.0135));
#1495=CARTESIAN_POINT('',(0.01399,-0.00269,0.0135));
#1496=CARTESIAN_POINT('',(0.01399,-0.00319,0.0135));
#1497=CARTESIAN_POINT('',(0.01349,-0.00319,0.0135));
#1498=CARTESIAN_POINT('',(0.01349,-0.00444,0.0135));
#1499=CARTESIAN_POINT('',(0.01349,-0.00569,0.0135));
#1500=CARTESIAN_POINT('',(0.01399,-0.00569,0.0135));
#1501=CARTESIAN_POINT('',(0.01399,-0.00619,0.0135));
#1502=CARTESIAN_POINT('',(0.01524,-0.00619,0.0135));
#1503=CARTESIAN_POINT('',(2.77555756156289E-17,-0.01953836,0.0135));
#1504=CARTESIAN_POINT('',(0.01585,-0.01953836,0.0135));
#1505=CARTESIAN_POINT('',(-0.01798,-0.02095,0.0135));
#1506=CARTESIAN_POINT('',(-0.01798,-0.0017,0.0135));
#1507=CARTESIAN_POINT('',(-0.01798,-0.0402,0.0135));
#1508=CARTESIAN_POINT('',(-2.08166817117217E-17,-0.0017,0.0135));
#1509=CARTESIAN_POINT('',(0.01798,-0.0017,0.0135));
#1510=CARTESIAN_POINT('',(0.01798,-0.02095,0.0135));
#1511=CARTESIAN_POINT('',(0.01798,-0.0402,0.0135));
#1512=CARTESIAN_POINT('',(-1.04083408558608E-17,-0.0402,0.0135));
#1513=CARTESIAN_POINT('',(-0.01399,-0.03617,0.0135));
#1514=CARTESIAN_POINT('',(-0.01349,-0.03617,0.0135));
#1515=CARTESIAN_POINT('',(-0.01399,-0.03667,0.0135));
#1516=CARTESIAN_POINT('',(-0.01349,-0.03492,0.0135));
#1517=CARTESIAN_POINT('',(-0.01349,-0.03367,0.0135));
#1518=CARTESIAN_POINT('',(-0.01399,-0.03367,0.0135));
#1519=CARTESIAN_POINT('',(-0.01399,-0.03317,0.0135));
#1520=CARTESIAN_POINT('',(-0.01524,-0.03317,0.0135));
#1521=CARTESIAN_POINT('',(-0.01649,-0.03317,0.0135));
#1522=CARTESIAN_POINT('',(-0.01649,-0.03367,0.0135));
#1523=CARTESIAN_POINT('',(-0.01699,-0.03367,0.0135));
#1524=CARTESIAN_POINT('',(-0.01699,-0.03492,0.0135));
#1525=CARTESIAN_POINT('',(-0.01699,-0.03617,0.0135));
#1526=CARTESIAN_POINT('',(-0.01649,-0.03617,0.0135));
#1527=CARTESIAN_POINT('',(-0.01649,-0.03667,0.0135));
#1528=CARTESIAN_POINT('',(-0.01524,-0.03667,0.0135));
#1529=CARTESIAN_POINT('',(-6.93889390390723E-18,0.,0.0135));
#1530=CARTESIAN_POINT('',(0.01524,-0.00444,0.0135));
#1531=CARTESIAN_POINT('',(0.01634,-0.00444,0.0135));
#1532=CARTESIAN_POINT('',(0.01524,-0.00444,0.0135));
#1533=CARTESIAN_POINT('',(0.01399,-0.00444,0.0135));
#1534=CARTESIAN_POINT('',(-0.01798,-0.02095,0.0135));
#1535=CARTESIAN_POINT('',(-0.01798,-0.02095,0.015));
#1536=CARTESIAN_POINT('',(-0.01798,-0.0017,0.015));
#1537=CARTESIAN_POINT('',(-0.01798,-0.0402,0.015));
#1538=CARTESIAN_POINT('',(-0.01798,-0.0017,0.0135));
#1539=CARTESIAN_POINT('',(-0.01798,-0.0402,0.0135));
#1540=CARTESIAN_POINT('',(-1.04083408558608E-17,-0.0402,0.0135));
#1541=CARTESIAN_POINT('',(-1.04083408558608E-17,-0.0402,0.015));
#1542=CARTESIAN_POINT('',(0.01798,-0.0402,0.015));
#1543=CARTESIAN_POINT('',(0.01798,-0.0402,0.0135));
#1544=CARTESIAN_POINT('',(0.01798,-0.02095,0.0135));
#1545=CARTESIAN_POINT('',(0.01798,-0.02095,0.015));
#1546=CARTESIAN_POINT('',(0.01798,-0.0017,0.015));
#1547=CARTESIAN_POINT('',(0.01798,-0.0017,0.0135));
#1548=CARTESIAN_POINT('',(2.77555756156289E-17,-0.01953836,0.0135));
#1549=CARTESIAN_POINT('',(2.77555756156289E-17,-0.01953836,0.015));
#1550=CARTESIAN_POINT('',(0.01585,-0.01953836,0.015));
#1551=CARTESIAN_POINT('',(-2.08166817117217E-17,-0.0017,0.0135));
#1552=CARTESIAN_POINT('',(-2.08166817117217E-17,-0.0017,0.015));
#1553=CARTESIAN_POINT('',(-6.93889390390723E-18,0.,0.015));
#1554=CARTESIAN_POINT('',(-0.01524,-0.00444,0.015));
#1555=CARTESIAN_POINT('',(-0.01749,-0.00444,0.015));
#1556=CARTESIAN_POINT('',(0.01524,-0.00444,0.015));
#1557=CARTESIAN_POINT('',(0.01299,-0.00444,0.015));
#1558=CARTESIAN_POINT('',(0.01524,-0.03492,0.015));
#1559=CARTESIAN_POINT('',(0.01299,-0.03492,0.015));
#1560=CARTESIAN_POINT('',(-0.01524,-0.03492,0.015));
#1561=CARTESIAN_POINT('',(-0.01749,-0.03492,0.015));
#1562=CARTESIAN_POINT('',(-0.01524,-0.03492,0.015));
#1563=CARTESIAN_POINT('',(-0.01524,-0.03492,0.01385));
#1564=CARTESIAN_POINT('',(-0.01634,-0.03492,0.01385));
#1565=CARTESIAN_POINT('',(-0.01524,-0.03492,0.015));
#1566=CARTESIAN_POINT('',(0.01524,-0.03492,0.015));
#1567=CARTESIAN_POINT('',(0.01524,-0.03492,0.01385));
#1568=CARTESIAN_POINT('',(0.01414,-0.03492,0.01385));
#1569=CARTESIAN_POINT('',(0.01524,-0.03492,0.015));
#1570=CARTESIAN_POINT('',(0.01524,-0.00444,0.015));
#1571=CARTESIAN_POINT('',(0.01524,-0.00444,0.01385));
#1572=CARTESIAN_POINT('',(0.01414,-0.00444,0.01385));
#1573=CARTESIAN_POINT('',(0.01524,-0.00444,0.015));
#1574=CARTESIAN_POINT('',(-0.01524,-0.00444,0.015));
#1575=CARTESIAN_POINT('',(-0.01524,-0.00444,0.01385));
#1576=CARTESIAN_POINT('',(-0.01634,-0.00444,0.01385));
#1577=CARTESIAN_POINT('',(-0.01524,-0.00444,0.015));
#1578=CARTESIAN_POINT('',(0.01699,-0.00444,0.010568));
#1579=CARTESIAN_POINT('',(0.01699,-0.00569,0.010568));
#1580=CARTESIAN_POINT('',(0.01699,-0.00569,0.01057));
#1581=CARTESIAN_POINT('',(0.01699,-0.00444,0.01057));
#1582=CARTESIAN_POINT('',(0.01699,-0.00319,0.01057));
#1583=CARTESIAN_POINT('',(0.01699,-0.00319,0.010568));
#1584=CARTESIAN_POINT('',(0.01649,-0.00569,0.010568));
#1585=CARTESIAN_POINT('',(0.01649,-0.00569,0.01057));
#1586=CARTESIAN_POINT('',(0.01649,-0.00619,0.01057));
#1587=CARTESIAN_POINT('',(0.01649,-0.00619,0.010568));
#1588=CARTESIAN_POINT('',(0.01524,-0.00619,0.010568));
#1589=CARTESIAN_POINT('',(0.01524,-0.00619,0.01057));
#1590=CARTESIAN_POINT('',(0.01399,-0.00619,0.01057));
#1591=CARTESIAN_POINT('',(0.01399,-0.00619,0.010568));
#1592=CARTESIAN_POINT('',(0.01399,-0.00569,0.010568));
#1593=CARTESIAN_POINT('',(0.01399,-0.00569,0.01057));
#1594=CARTESIAN_POINT('',(0.01349,-0.00569,0.01057));
#1595=CARTESIAN_POINT('',(0.01349,-0.00569,0.010568));
#1596=CARTESIAN_POINT('',(0.01349,-0.00444,0.010568));
#1597=CARTESIAN_POINT('',(0.01349,-0.00444,0.01057));
#1598=CARTESIAN_POINT('',(0.01349,-0.00319,0.01057));
#1599=CARTESIAN_POINT('',(0.01349,-0.00319,0.010568));
#1600=CARTESIAN_POINT('',(0.01399,-0.00319,0.010568));
#1601=CARTESIAN_POINT('',(0.01399,-0.00319,0.01057));
#1602=CARTESIAN_POINT('',(0.01399,-0.00269,0.01057));
#1603=CARTESIAN_POINT('',(0.01399,-0.00269,0.010568));
#1604=CARTESIAN_POINT('',(0.01524,-0.00269,0.010568));
#1605=CARTESIAN_POINT('',(0.01649,-0.00269,0.010568));
#1606=CARTESIAN_POINT('',(0.01649,-0.00269,0.01057));
#1607=CARTESIAN_POINT('',(0.01524,-0.00269,0.01057));
#1608=CARTESIAN_POINT('',(0.01524,-0.00444,0.010568));
#1609=CARTESIAN_POINT('',(0.01524,-0.00444,0.01057));
#1610=CARTESIAN_POINT('',(0.01399,-0.00444,0.01057));
#1611=CARTESIAN_POINT('',(0.01649,-0.00319,0.010568));
#1612=CARTESIAN_POINT('',(0.01649,-0.00319,0.01057));
#1613=CARTESIAN_POINT('',(0.,-0.02095,0.01057));
#1614=CARTESIAN_POINT('',(-0.01349,-0.03492,0.010568));
#1615=CARTESIAN_POINT('',(-0.01349,-0.03617,0.010568));
#1616=CARTESIAN_POINT('',(-0.01349,-0.03617,0.01057));
#1617=CARTESIAN_POINT('',(-0.01349,-0.03492,0.01057));
#1618=CARTESIAN_POINT('',(-0.01349,-0.03367,0.01057));
#1619=CARTESIAN_POINT('',(-0.01349,-0.03367,0.010568));
#1620=CARTESIAN_POINT('',(-0.01399,-0.03617,0.010568));
#1621=CARTESIAN_POINT('',(-0.01399,-0.03617,0.01057));
#1622=CARTESIAN_POINT('',(-0.01399,-0.03667,0.01057));
#1623=CARTESIAN_POINT('',(-0.01399,-0.03667,0.010568));
#1624=CARTESIAN_POINT('',(-0.01524,-0.03667,0.010568));
#1625=CARTESIAN_POINT('',(-0.01524,-0.03667,0.01057));
#1626=CARTESIAN_POINT('',(-0.01649,-0.03667,0.01057));
#1627=CARTESIAN_POINT('',(-0.01649,-0.03667,0.010568));
#1628=CARTESIAN_POINT('',(-0.01649,-0.03617,0.010568));
#1629=CARTESIAN_POINT('',(-0.01649,-0.03617,0.01057));
#1630=CARTESIAN_POINT('',(-0.01699,-0.03617,0.01057));
#1631=CARTESIAN_POINT('',(-0.01699,-0.03617,0.010568));
#1632=CARTESIAN_POINT('',(-0.01699,-0.03492,0.010568));
#1633=CARTESIAN_POINT('',(-0.01699,-0.03492,0.01057));
#1634=CARTESIAN_POINT('',(-0.01699,-0.03367,0.01057));
#1635=CARTESIAN_POINT('',(-0.01699,-0.03367,0.010568));
#1636=CARTESIAN_POINT('',(-0.01649,-0.03367,0.010568));
#1637=CARTESIAN_POINT('',(-0.01649,-0.03367,0.01057));
#1638=CARTESIAN_POINT('',(-0.01649,-0.03317,0.01057));
#1639=CARTESIAN_POINT('',(-0.01649,-0.03317,0.010568));
#1640=CARTESIAN_POINT('',(-0.01524,-0.03317,0.010568));
#1641=CARTESIAN_POINT('',(-0.01399,-0.03317,0.010568));
#1642=CARTESIAN_POINT('',(-0.01399,-0.03317,0.01057));
#1643=CARTESIAN_POINT('',(-0.01524,-0.03317,0.01057));
#1644=CARTESIAN_POINT('',(-0.01524,-0.03492,0.010568));
#1645=CARTESIAN_POINT('',(-0.01524,-0.03492,0.01057));
#1646=CARTESIAN_POINT('',(-0.01649,-0.03492,0.01057));
#1647=CARTESIAN_POINT('',(-0.01399,-0.03367,0.010568));
#1648=CARTESIAN_POINT('',(-0.01399,-0.03367,0.01057));
#1649=CARTESIAN_POINT('',(0.,-0.02095,0.01057));
#1650=CARTESIAN_POINT('',(0.01524,-0.03667,0.010568));
#1651=CARTESIAN_POINT('',(0.01524,-0.03667,0.01057));
#1652=CARTESIAN_POINT('',(0.01649,-0.03667,0.01057));
#1653=CARTESIAN_POINT('',(0.01399,-0.03667,0.01057));
#1654=CARTESIAN_POINT('',(0.01649,-0.03667,0.010568));
#1655=CARTESIAN_POINT('',(0.01399,-0.03667,0.010568));
#1656=CARTESIAN_POINT('',(0.01399,-0.03617,0.010568));
#1657=CARTESIAN_POINT('',(0.01399,-0.03617,0.01057));
#1658=CARTESIAN_POINT('',(0.01349,-0.03617,0.01057));
#1659=CARTESIAN_POINT('',(0.01349,-0.03617,0.010568));
#1660=CARTESIAN_POINT('',(0.01349,-0.03492,0.010568));
#1661=CARTESIAN_POINT('',(0.01349,-0.03492,0.01057));
#1662=CARTESIAN_POINT('',(0.01349,-0.03367,0.01057));
#1663=CARTESIAN_POINT('',(0.01349,-0.03367,0.010568));
#1664=CARTESIAN_POINT('',(0.01399,-0.03367,0.010568));
#1665=CARTESIAN_POINT('',(0.01399,-0.03367,0.01057));
#1666=CARTESIAN_POINT('',(0.01399,-0.03317,0.01057));
#1667=CARTESIAN_POINT('',(0.01399,-0.03317,0.010568));
#1668=CARTESIAN_POINT('',(0.01524,-0.03317,0.010568));
#1669=CARTESIAN_POINT('',(0.01649,-0.03317,0.010568));
#1670=CARTESIAN_POINT('',(0.01649,-0.03317,0.01057));
#1671=CARTESIAN_POINT('',(0.01524,-0.03317,0.01057));
#1672=CARTESIAN_POINT('',(0.01649,-0.03367,0.010568));
#1673=CARTESIAN_POINT('',(0.01649,-0.03367,0.01057));
#1674=CARTESIAN_POINT('',(0.01699,-0.03367,0.01057));
#1675=CARTESIAN_POINT('',(0.01699,-0.03367,0.010568));
#1676=CARTESIAN_POINT('',(0.01699,-0.03492,0.010568));
#1677=CARTESIAN_POINT('',(0.01699,-0.03617,0.010568));
#1678=CARTESIAN_POINT('',(0.01699,-0.03617,0.01057));
#1679=CARTESIAN_POINT('',(0.01699,-0.03492,0.01057));
#1680=CARTESIAN_POINT('',(0.01524,-0.03492,0.010568));
#1681=CARTESIAN_POINT('',(0.01524,-0.03492,0.01057));
#1682=CARTESIAN_POINT('',(0.01399,-0.03492,0.01057));
#1683=CARTESIAN_POINT('',(0.01649,-0.03617,0.010568));
#1684=CARTESIAN_POINT('',(0.01649,-0.03617,0.01057));
#1685=CARTESIAN_POINT('',(0.,-0.02095,0.01057));
#1686=CARTESIAN_POINT('',(-0.01524,-0.00619,0.010568));
#1687=CARTESIAN_POINT('',(-0.01524,-0.00619,0.01057));
#1688=CARTESIAN_POINT('',(-0.01399,-0.00619,0.01057));
#1689=CARTESIAN_POINT('',(-0.01649,-0.00619,0.01057));
#1690=CARTESIAN_POINT('',(-0.01399,-0.00619,0.010568));
#1691=CARTESIAN_POINT('',(-0.01649,-0.00619,0.010568));
#1692=CARTESIAN_POINT('',(-0.01649,-0.00569,0.010568));
#1693=CARTESIAN_POINT('',(-0.01649,-0.00569,0.01057));
#1694=CARTESIAN_POINT('',(-0.01699,-0.00569,0.01057));
#1695=CARTESIAN_POINT('',(-0.01699,-0.00569,0.010568));
#1696=CARTESIAN_POINT('',(-0.01699,-0.00444,0.010568));
#1697=CARTESIAN_POINT('',(-0.01699,-0.00444,0.01057));
#1698=CARTESIAN_POINT('',(-0.01699,-0.00319,0.01057));
#1699=CARTESIAN_POINT('',(-0.01699,-0.00319,0.010568));
#1700=CARTESIAN_POINT('',(-0.01649,-0.00319,0.010568));
#1701=CARTESIAN_POINT('',(-0.01649,-0.00319,0.01057));
#1702=CARTESIAN_POINT('',(-0.01649,-0.00269,0.01057));
#1703=CARTESIAN_POINT('',(-0.01649,-0.00269,0.010568));
#1704=CARTESIAN_POINT('',(-0.01524,-0.00269,0.010568));
#1705=CARTESIAN_POINT('',(-0.01399,-0.00269,0.010568));
#1706=CARTESIAN_POINT('',(-0.01399,-0.00269,0.01057));
#1707=CARTESIAN_POINT('',(-0.01524,-0.00269,0.01057));
#1708=CARTESIAN_POINT('',(-0.01399,-0.00319,0.010568));
#1709=CARTESIAN_POINT('',(-0.01399,-0.00319,0.01057));
#1710=CARTESIAN_POINT('',(-0.01349,-0.00319,0.01057));
#1711=CARTESIAN_POINT('',(-0.01349,-0.00319,0.010568));
#1712=CARTESIAN_POINT('',(-0.01349,-0.00444,0.010568));
#1713=CARTESIAN_POINT('',(-0.01349,-0.00569,0.010568));
#1714=CARTESIAN_POINT('',(-0.01349,-0.00569,0.01057));
#1715=CARTESIAN_POINT('',(-0.01349,-0.00444,0.01057));
#1716=CARTESIAN_POINT('',(-0.01524,-0.00444,0.010568));
#1717=CARTESIAN_POINT('',(-0.01524,-0.00444,0.01057));
#1718=CARTESIAN_POINT('',(-0.01649,-0.00444,0.01057));
#1719=CARTESIAN_POINT('',(-0.01399,-0.00569,0.010568));
#1720=CARTESIAN_POINT('',(-0.01399,-0.00569,0.01057));
#1721=CARTESIAN_POINT('',(0.,-0.02095,0.01057));
#1722=MECHANICAL_DESIGN_GEOMETRIC_PRESENTATION_REPRESENTATION('',(#1009),
#1723);
#1723=(
GEOMETRIC_REPRESENTATION_CONTEXT(3)
GLOBAL_UNCERTAINTY_ASSIGNED_CONTEXT((#1724))
GLOBAL_UNIT_ASSIGNED_CONTEXT((#1727,#1726,#1725))
REPRESENTATION_CONTEXT('Ano','TOP_LEVEL_ASSEMBLY_PART')
);
#1724=UNCERTAINTY_MEASURE_WITH_UNIT(LENGTH_MEASURE(1.E-8),#1727,
'DISTANCE_ACCURACY_VALUE','Maximum Tolerance applied to model');
#1725=(
NAMED_UNIT(*)
SI_UNIT($,.STERADIAN.)
SOLID_ANGLE_UNIT()
);
#1726=(
NAMED_UNIT(*)
PLANE_ANGLE_UNIT()
SI_UNIT($,.RADIAN.)
);
#1727=(
LENGTH_UNIT()
NAMED_UNIT(*)
SI_UNIT($,.METRE.)
);
#1728=PRODUCT_DEFINITION_SHAPE('','',#1729);
#1729=PRODUCT_DEFINITION('','',#1731,#1730);
#1730=PRODUCT_DEFINITION_CONTEXT('',#1737,'design');
#1731=PRODUCT_DEFINITION_FORMATION_WITH_SPECIFIED_SOURCE('','',#1733,
 .NOT_KNOWN.);
#1732=PRODUCT_RELATED_PRODUCT_CATEGORY('','',(#1733));
#1733=PRODUCT('Ano','Ano','Ano',(#1735));
#1734=PRODUCT_CATEGORY('','');
#1735=PRODUCT_CONTEXT('',#1737,'mechanical');
#1736=APPLICATION_PROTOCOL_DEFINITION('international standard',
'automotive_design',2010,#1737);
#1737=APPLICATION_CONTEXT(
'core data for automotive mechanical design processes');
ENDSEC;
END-ISO-10303-21;
